<svg width="25" height="25" viewBox="0 0 25 25" fill="none" xmlns="http://www.w3.org/2000/svg">
<g id="call">
<path id="Vector" fill-rule="evenodd" clip-rule="evenodd" d="M24.5507 21.6592C23.779 24.0041 20.7557 25.174 18.5956 24.979C15.6456 24.7124 12.4356 23.1474 9.99891 21.4242C6.41721 18.8909 3.06219 14.9727 1.10717 10.8145C-0.274508 7.87632 -0.58451 4.26311 1.47051 1.58487C2.23051 0.594908 3.05385 0.066594 4.2872 0.00492948C6.00054 -0.0784009 6.24054 0.901564 6.82888 2.42818C7.26722 3.5698 7.85222 4.73476 8.17889 5.91805C8.79056 8.12631 6.65221 8.21797 6.38221 10.0229C6.21554 11.1612 7.59389 12.6878 8.21723 13.4994C9.41871 15.0802 10.8903 16.436 12.5639 17.5043C13.5139 18.1026 15.0439 19.1809 16.1306 18.5859C17.804 17.6693 17.6473 14.8477 19.9857 15.8027C21.1973 16.296 22.3707 17.0077 23.5273 17.631C25.3157 18.5926 25.2324 19.5892 24.5507 21.6592C25.0607 20.1125 24.0407 23.2058 24.5507 21.6592Z" fill="#01B18B"/>
</g>
</svg>
