<svg width="32" height="32" viewBox="0 0 32 32" fill="none" xmlns="http://www.w3.org/2000/svg">
<rect x="0.5" y="0.5" width="31" height="31" rx="3.5" fill="#FFD2D2" stroke="#FE5657"/>
<path d="M16.1826 17.6318C15.7803 17.6318 15.3779 17.4795 15.0693 17.1709L9.08105 11.1826C8.46777 10.5693 8.46777 9.57324 9.08105 8.95996C9.69434 8.34668 10.6904 8.34668 11.3037 8.95996L16.1826 13.8389L21.0576 8.96012C21.6709 8.34684 22.667 8.34684 23.2803 8.96012C23.8936 9.5734 23.8936 10.5695 23.2803 11.1828L17.292 17.1709C16.9873 17.4756 16.585 17.6318 16.1826 17.6318Z" fill="#FE5657"/>
<path d="M16.0576 14.7944C16.46 14.7944 16.8623 14.9468 17.1709 15.2554L23.1592 21.2437C23.7725 21.8569 23.7725 22.853 23.1592 23.4663C22.5459 24.0796 21.5498 24.0796 20.9365 23.4663L16.0576 18.5874L11.1826 23.4661C10.5693 24.0794 9.57324 24.0794 8.95996 23.4661C8.34668 22.8529 8.34668 21.8568 8.95996 21.2435L14.9482 15.2554C15.2529 14.9507 15.6553 14.7944 16.0576 14.7944Z" fill="#FE5657"/>
</svg>
