<svg xmlns="http://www.w3.org/2000/svg" width="24" height="24" viewBox="0 0 24 24" fill="none">
  <path d="M18.8 18.5959H4.8C4.32261 18.5959 3.86477 18.4063 3.52721 18.0687C3.18964 17.7311 3 17.2733 3 16.7959V14.5959C3 14.3837 3.08429 14.1802 3.23431 14.0302C3.38434 13.8802 3.58783 13.7959 3.8 13.7959C4.01217 13.7959 4.21566 13.8802 4.36569 14.0302C4.51571 14.1802 4.6 14.3837 4.6 14.5959V16.7959C4.6 16.8489 4.62107 16.8998 4.65858 16.9373C4.69609 16.9748 4.74696 16.9959 4.8 16.9959H18.8C18.853 16.9959 18.9039 16.9748 18.9414 16.9373C18.9789 16.8998 19 16.8489 19 16.7959V14.5959C19 14.3837 19.0843 14.1802 19.2343 14.0302C19.3843 13.8802 19.5878 13.7959 19.8 13.7959C20.0122 13.7959 20.2157 13.8802 20.3657 14.0302C20.5157 14.1802 20.6 14.3837 20.6 14.5959V16.7959C20.6 17.2733 20.4104 17.7311 20.0728 18.0687C19.7352 18.4063 19.2774 18.5959 18.8 18.5959Z" fill="white"/>
  <path d="M15.7361 9.30001C15.676 9.44611 15.5741 9.57117 15.4432 9.65943C15.3122 9.7477 15.158 9.79522 15.0001 9.79601H12.6001V12.996C12.6001 13.2082 12.5158 13.4117 12.3657 13.5617C12.2157 13.7117 12.0122 13.796 11.8001 13.796C11.5879 13.796 11.3844 13.7117 11.2344 13.5617C11.0843 13.4117 11.0001 13.2082 11.0001 12.996V9.79601H8.60006C8.44212 9.79522 8.28795 9.7477 8.15697 9.65943C8.026 9.57117 7.92408 9.44611 7.86406 9.30001C7.8028 9.15432 7.78606 8.99375 7.81596 8.83856C7.84586 8.68337 7.92106 8.54051 8.03206 8.42801L11.2321 5.22801C11.3081 5.15518 11.3979 5.09809 11.4961 5.06001C11.6908 4.98 11.9093 4.98 12.1041 5.06001C12.2023 5.09809 12.292 5.15518 12.3681 5.22801L15.5681 8.42801C15.6791 8.54051 15.7543 8.68337 15.7842 8.83856C15.8141 8.99375 15.7973 9.15432 15.7361 9.30001Z" fill="white"/>
</svg>