<svg width="24" height="24" viewBox="0 0 24 24" fill="none" xmlns="http://www.w3.org/2000/svg">
<path d="M21.1715 4.8781C20.1115 3.8153 18.7063 3.16664 17.2098 3.04927C15.7134 2.9319 14.2243 3.35356 13.0115 4.2381C11.7392 3.29173 10.1555 2.86261 8.57943 3.03713C7.00336 3.21166 5.55195 3.97687 4.51748 5.17868C3.48301 6.38049 2.94233 7.92962 3.00431 9.51411C3.06629 11.0986 3.72632 12.6008 4.85151 13.7181L11.0615 19.9381C11.5815 20.4499 12.2819 20.7367 13.0115 20.7367C13.7411 20.7367 14.4415 20.4499 14.9615 19.9381L21.1715 13.7181C22.3391 12.5434 22.9944 10.9544 22.9944 9.2981C22.9944 7.64182 22.3391 6.05283 21.1715 4.8781ZM19.7615 12.3381L13.5515 18.5481C13.4808 18.6194 13.3967 18.6761 13.304 18.7147C13.2114 18.7534 13.1119 18.7733 13.0115 18.7733C12.9111 18.7733 12.8117 18.7534 12.719 18.7147C12.6263 18.6761 12.5422 18.6194 12.4715 18.5481L6.26151 12.3081C5.47726 11.5064 5.03812 10.4296 5.03812 9.3081C5.03812 8.18663 5.47726 7.10975 6.26151 6.30809C7.06066 5.51908 8.13848 5.07666 9.26151 5.07666C10.3845 5.07666 11.4624 5.51908 12.2615 6.30809C12.3545 6.40182 12.4651 6.47622 12.5869 6.52699C12.7088 6.57776 12.8395 6.60389 12.9715 6.60389C13.1035 6.60389 13.2342 6.57776 13.3561 6.52699C13.4779 6.47622 13.5885 6.40182 13.6815 6.30809C14.4807 5.51908 15.5585 5.07666 16.6815 5.07666C17.8045 5.07666 18.8824 5.51908 19.6815 6.30809C20.4765 7.09925 20.9301 8.17029 20.945 9.29178C20.96 10.4133 20.5352 11.496 19.7615 12.3081V12.3381Z" fill="white" fill-opacity="0.4"/>
</svg>
