<svg width="24" height="24" viewBox="0 0 24 24" fill="none" xmlns="http://www.w3.org/2000/svg">
<g id="map">
<g id="Layer 2">
<path id="Vector" d="M12.0285 23.3639C12.2125 23.3628 12.3907 23.2996 12.5342 23.1844C12.8441 22.9071 21.0004 16.3332 21.0004 9.49824C21.0004 7.11875 20.0551 4.83672 18.3726 3.15417C16.69 1.47162 14.408 0.526367 12.0285 0.526367C9.64903 0.526367 7.367 1.47162 5.68444 3.15417C4.00189 4.83672 3.05664 7.11875 3.05664 9.49824C3.05664 16.3332 11.2129 22.9071 11.5228 23.1844C11.6663 23.2996 11.8445 23.3628 12.0285 23.3639ZM4.68789 9.49824C4.68789 7.55139 5.46128 5.68427 6.83791 4.30764C8.21454 2.931 10.0817 2.15762 12.0285 2.15762C13.9754 2.15762 15.8425 2.931 17.2191 4.30764C18.5958 5.68427 19.3691 7.55139 19.3691 9.49824C19.3691 14.6367 13.7658 19.9464 12.0285 21.4798C10.2912 19.9464 4.68789 14.6367 4.68789 9.49824Z" fill="#1C1C1C"/>
<path id="Vector_2" d="M16.1074 9.49912C16.1074 8.69254 15.8682 7.90408 15.4201 7.23343C14.972 6.56279 14.3351 6.04008 13.5899 5.73142C12.8448 5.42276 12.0248 5.342 11.2337 5.49935C10.4426 5.65671 9.71597 6.04511 9.14563 6.61545C8.57529 7.18578 8.18689 7.91244 8.02953 8.70352C7.87218 9.49459 7.95294 10.3146 8.2616 11.0597C8.57027 11.8049 9.09297 12.4418 9.76361 12.89C10.4343 13.3381 11.2227 13.5772 12.0293 13.5772C13.1109 13.5772 14.1482 13.1476 14.913 12.3828C15.6778 11.618 16.1074 10.5807 16.1074 9.49912ZM9.58242 9.49912C9.58242 9.01517 9.72593 8.54209 9.9948 8.13971C10.2637 7.73732 10.6458 7.4237 11.0929 7.2385C11.54 7.0533 12.032 7.00484 12.5067 7.09926C12.9813 7.19367 13.4173 7.42671 13.7595 7.76892C14.1017 8.11112 14.3347 8.54711 14.4292 9.02176C14.5236 9.4964 14.4751 9.98839 14.2899 10.4355C14.1047 10.8826 13.7911 11.2648 13.3887 11.5336C12.9863 11.8025 12.5132 11.946 12.0293 11.946C11.3803 11.946 10.758 11.6882 10.2991 11.2293C9.84022 10.7704 9.58242 10.1481 9.58242 9.49912Z" fill="#1C1C1C"/>
</g>
</g>
</svg>
