<svg width="32" height="32" viewBox="0 0 32 32" fill="none" xmlns="http://www.w3.org/2000/svg">
<g id="map">
<path id="Vector" d="M12.7126 30.2222C12.6354 30.2223 12.5589 30.2076 12.487 30.1788L6.17369 27.6513C6.05705 27.6046 5.95685 27.5227 5.88622 27.4165C5.81558 27.3103 5.77781 27.1846 5.77783 27.0559V10.4165C5.77796 10.3126 5.8027 10.2103 5.8499 10.1185C5.89711 10.0267 5.96537 9.94802 6.04878 9.88939C6.13218 9.83076 6.22823 9.79389 6.3286 9.78199C6.42898 9.77008 6.53066 9.78349 6.62486 9.82106L12.9369 12.3485C13.0537 12.3951 13.154 12.4769 13.2247 12.5832C13.2955 12.6894 13.3334 12.8152 13.3334 12.944V29.5833C13.3334 29.7528 13.2679 29.9153 13.1514 30.0351C13.0348 30.1549 12.8768 30.2222 12.7119 30.2222H12.7126ZM7.02073 26.6189L12.0911 28.6486V13.381L7.02073 11.3506V26.6189Z" fill="#1C1C1C"/>
<path id="Subtract" fill-rule="evenodd" clip-rule="evenodd" d="M18.5552 18.2366V26.4584L13.5454 28.4722V13.2097L14.1952 12.9485L13.5156 11.8442L12.6682 12.1849C12.5499 12.2324 12.4485 12.3143 12.3771 12.42C12.3057 12.5257 12.2676 12.6503 12.2676 12.7778V29.4178C12.2676 29.5873 12.3349 29.7498 12.4547 29.8696C12.5745 29.9894 12.737 30.0568 12.9065 30.0568C12.9882 30.0569 13.0691 30.0413 13.1448 30.0108L19.1964 27.5781L25.3488 30.012C25.4236 30.0416 25.5034 30.0567 25.5839 30.0567C25.7533 30.0567 25.9159 29.9894 26.0357 29.8696C26.1555 29.7497 26.2228 29.5872 26.2228 29.4178V12.7777C26.2228 12.6496 26.1843 12.5245 26.1123 12.4185C26.0403 12.3125 25.9381 12.2307 25.819 12.1835L24.7976 11.7795L24.1463 12.8961L24.945 13.2122V28.4779L19.8336 26.4557V18.236L19.1941 18.8755L18.5552 18.2366Z" fill="#1C1C1C"/>
<g id="Layer 2">
<path id="Vector_2" d="M19.1946 19.8334C19.3387 19.8325 19.4783 19.783 19.5908 19.6928C19.8335 19.4756 26.2228 14.3259 26.2228 8.97173C26.2228 7.10775 25.4823 5.32012 24.1643 4.00209C22.8462 2.68406 21.0586 1.9436 19.1946 1.9436C17.3307 1.9436 15.543 2.68406 14.225 4.00209C12.907 5.32012 12.1665 7.10775 12.1665 8.97173C12.1665 14.3259 18.5557 19.4756 18.7985 19.6928C18.9109 19.783 19.0505 19.8325 19.1946 19.8334ZM13.4443 8.97173C13.4443 7.44666 14.0502 5.98405 15.1286 4.90566C16.207 3.82728 17.6696 3.22144 19.1946 3.22144C20.7197 3.22144 22.1823 3.82728 23.2607 4.90566C24.3391 5.98405 24.9449 7.44666 24.9449 8.97173C24.9449 12.9969 20.5555 17.1563 19.1946 18.3575C17.8337 17.1563 13.4443 12.9969 13.4443 8.97173Z" fill="#1C1C1C"/>
<path id="Vector_3" d="M22.3897 8.97244C22.3897 8.3406 22.2023 7.72296 21.8513 7.19761C21.5003 6.67226 21.0014 6.2628 20.4176 6.02101C19.8339 5.77922 19.1915 5.71595 18.5719 5.83922C17.9522 5.96248 17.3829 6.26674 16.9362 6.71351C16.4894 7.16028 16.1851 7.72951 16.0619 8.3492C15.9386 8.96889 16.0019 9.61122 16.2437 10.195C16.4855 10.7787 16.8949 11.2776 17.4203 11.6286C17.9456 11.9797 18.5633 12.167 19.1951 12.167C20.0424 12.167 20.8549 11.8305 21.454 11.2314C22.0531 10.6323 22.3897 9.8197 22.3897 8.97244ZM17.2783 8.97244C17.2783 8.59334 17.3907 8.22275 17.6014 7.90754C17.812 7.59233 18.1113 7.34665 18.4616 7.20158C18.8118 7.0565 19.1972 7.01855 19.569 7.0925C19.9408 7.16646 20.2824 7.34902 20.5504 7.61708C20.8185 7.88514 21.0011 8.22668 21.075 8.59849C21.149 8.97031 21.111 9.35571 20.9659 9.70595C20.8209 10.0562 20.5752 10.3555 20.26 10.5662C19.9448 10.7768 19.5742 10.8892 19.1951 10.8892C18.6867 10.8892 18.1992 10.6873 17.8397 10.3278C17.4803 9.96833 17.2783 9.48079 17.2783 8.97244Z" fill="#1C1C1C"/>
</g>
</g>
</svg>
