<svg width="24" height="24" viewBox="0 0 24 24" fill="none" xmlns="http://www.w3.org/2000/svg">
<g id="policy_FILL0_wght400_GRAD0_opsz48 1">
<path id="Vector" d="M12 21.9746C9.66667 21.3913 7.75 20.0371 6.25 17.9121C4.75 15.7871 4 13.4579 4 10.9246V4.97461L12 1.97461L20 4.97461V10.9246C20 13.4579 19.25 15.7871 17.75 17.9121C16.25 20.0371 14.3333 21.3913 12 21.9746ZM12 14.1496C12.6167 14.1496 13.1417 13.9371 13.575 13.5121C14.0083 13.0871 14.225 12.5663 14.225 11.9496C14.225 11.3163 14.0083 10.7829 13.575 10.3496C13.1417 9.91628 12.6167 9.69961 12 9.69961C11.3833 9.69961 10.8583 9.91628 10.425 10.3496C9.99167 10.7829 9.775 11.3163 9.775 11.9496C9.775 12.5663 9.99167 13.0871 10.425 13.5121C10.8583 13.9371 11.3833 14.1496 12 14.1496ZM12 20.4246C12.8667 20.1413 13.6625 19.7288 14.3875 19.1871C15.1125 18.6454 15.7583 18.0079 16.325 17.2746L14.075 15.0246C13.7583 15.2079 13.425 15.3579 13.075 15.4746C12.725 15.5913 12.3667 15.6496 12 15.6496C10.9667 15.6496 10.0875 15.2913 9.3625 14.5746C8.6375 13.8579 8.275 12.9829 8.275 11.9496C8.275 10.8996 8.6375 10.0121 9.3625 9.28711C10.0875 8.56211 10.9667 8.19961 12 8.19961C13.0333 8.19961 13.9125 8.56211 14.6375 9.28711C15.3625 10.0121 15.725 10.8996 15.725 11.9496C15.725 12.2996 15.675 12.6496 15.575 12.9996C15.475 13.3496 15.3167 13.6663 15.1 13.9496L17.175 16.0246C17.6083 15.2746 17.9375 14.4663 18.1625 13.5996C18.3875 12.7329 18.5 11.8413 18.5 10.9246V6.02461L12 3.57461L5.5 6.02461V10.9246C5.5 13.1079 6.10417 15.0788 7.3125 16.8371C8.52083 18.5954 10.0833 19.7913 12 20.4246Z" fill="#2C2C2C"/>
</g>
</svg>
