<svg width="29" height="30" viewBox="0 0 29 30" fill="none" xmlns="http://www.w3.org/2000/svg">
<g filter="url(#filter0_d_381_2395)">
<path d="M24.0005 9.66966C23.9373 9.48674 23.8224 9.32608 23.6698 9.20716C23.5171 9.08823 23.3333 9.01615 23.1405 8.99966L17.4505 8.16966L14.9005 2.99966C14.8186 2.83059 14.6907 2.688 14.5316 2.58823C14.3724 2.48846 14.1883 2.43555 14.0005 2.43555C13.8126 2.43555 13.6286 2.48846 13.4694 2.58823C13.3102 2.688 13.1824 2.83059 13.1005 2.99966L10.5505 8.15966L4.86047 8.99966C4.67539 9.02596 4.50139 9.10362 4.35822 9.22381C4.21504 9.34401 4.10843 9.50193 4.05047 9.67966C3.99741 9.85333 3.99265 10.0382 4.03669 10.2143C4.08074 10.3905 4.17192 10.5514 4.30047 10.6797L8.43047 14.6797L7.43047 20.3597C7.39477 20.5471 7.41346 20.7409 7.48434 20.9181C7.55522 21.0953 7.67532 21.2485 7.83047 21.3597C7.98168 21.4678 8.16004 21.5316 8.34551 21.5439C8.53099 21.5563 8.71624 21.5167 8.88047 21.4297L14.0005 18.7597L19.1005 21.4397C19.2408 21.5188 19.3993 21.5602 19.5605 21.5597C19.7723 21.5604 19.9789 21.4939 20.1505 21.3697C20.3056 21.2585 20.4257 21.1053 20.4966 20.9281C20.5675 20.7509 20.5862 20.5571 20.5505 20.3697L19.5505 14.6897L23.6805 10.6897C23.8248 10.5673 23.9316 10.4066 23.9882 10.226C24.0448 10.0455 24.0491 9.85253 24.0005 9.66966ZM17.8505 13.6697C17.7332 13.7831 17.6454 13.9235 17.5949 14.0786C17.5444 14.2338 17.5325 14.3989 17.5605 14.5597L18.2805 18.7497L14.5205 16.7497C14.3758 16.6726 14.2144 16.6323 14.0505 16.6323C13.8865 16.6323 13.7251 16.6726 13.5805 16.7497L9.82047 18.7497L10.5405 14.5597C10.5684 14.3989 10.5566 14.2338 10.506 14.0786C10.4555 13.9235 10.3677 13.7831 10.2505 13.6697L7.25047 10.6697L11.4605 10.0597C11.6225 10.0371 11.7765 9.9752 11.909 9.87931C12.0415 9.78342 12.1484 9.65649 12.2205 9.50966L14.0005 5.69966L15.8805 9.51966C15.9525 9.66649 16.0595 9.79342 16.192 9.88931C16.3245 9.9852 16.4785 10.0471 16.6405 10.0697L20.8505 10.6797L17.8505 13.6697Z" fill="white"/>
</g>
<defs>
<filter id="filter0_d_381_2395" x="-2" y="0" width="32" height="32" filterUnits="userSpaceOnUse" color-interpolation-filters="sRGB">
<feFlood flood-opacity="0" result="BackgroundImageFix"/>
<feColorMatrix in="SourceAlpha" type="matrix" values="0 0 0 0 0 0 0 0 0 0 0 0 0 0 0 0 0 0 127 0" result="hardAlpha"/>
<feOffset dy="4"/>
<feGaussianBlur stdDeviation="2"/>
<feComposite in2="hardAlpha" operator="out"/>
<feColorMatrix type="matrix" values="0 0 0 0 0 0 0 0 0 0 0 0 0 0 0 0 0 0 0.25 0"/>
<feBlend mode="normal" in2="BackgroundImageFix" result="effect1_dropShadow_381_2395"/>
<feBlend mode="normal" in="SourceGraphic" in2="effect1_dropShadow_381_2395" result="shape"/>
</filter>
</defs>
</svg>
