<svg width="800" height="600" xmlns="http://www.w3.org/2000/svg">

 <g>
  <title>Layer 1</title>
  <g fill="white">
   <path d="m522.3825,281.32251a175.843,175.843 0 0 0 -6.707,-3.045c-3.947,-72.737 -43.692,-114.379 -110.428,-114.805c-38.505,-0.256 -72.972,15.445 -94.454,48.041l36.702,25.178c15.265,-23.159 39.221,-28.097 56.864,-28.097c0.203,0 0.408,0 0.61,0.003c21.973,0.139 38.555,6.528 49.287,18.987c7.81,9.071 13.034,21.606 15.62,37.425c-19.482,-3.312 -40.552,-4.329 -63.077,-3.039c-63.449,3.656 -104.24,40.661 -101.5,92.081c1.39,26.083 14.384,48.522 36.586,63.18c18.773,12.391 42.95,18.451 68.078,17.08c33.183,-1.819 59.214,-14.48 77.376,-37.631c13.793,-17.579 22.516,-40.362 26.368,-69.068c15.814,9.543 27.535,22.103 34.007,37.2c11.007,25.665 11.648,67.84 -22.764,102.222c-30.15,30.121 -66.392,43.151 -121.164,43.554c-60.757,-0.45 -106.707,-19.934 -136.582,-57.914c-27.976,-35.563 -42.434,-86.93 -42.973,-152.675c0.539,-65.745 14.997,-117.113 42.973,-152.675c29.875,-37.979 75.824,-57.464 136.581,-57.914c61.197,0.455 107.948,20.033 138.967,58.195c15.21,18.713 26.677,42.248 34.236,69.688l43.011,-11.476c-9.163,-33.775 -23.581,-62.881 -43.203,-87.017c-39.765,-48.925 -97.924,-73.996 -172.861,-74.515l-0.3,0c-74.784,0.518 -132.292,25.683 -170.926,74.794c-34.378,43.704 -52.111,104.514 -52.707,180.74l-0.002,0.18l0.002,0.18c0.596,76.226 18.329,137.037 52.707,180.741c38.634,49.11 96.142,74.277 170.926,74.794l0.3,0c66.487,-0.462 113.352,-17.868 151.96,-56.442c50.511,-50.463 48.991,-113.717 32.342,-152.548c-11.944,-27.847 -34.716,-50.464 -65.855,-65.402zm-114.795,107.93c-27.809,1.566 -56.7,-10.917 -58.124,-37.652c-1.056,-19.823 14.108,-41.942 59.83,-44.577c5.237,-0.302 10.375,-0.45 15.422,-0.45c16.609,0 32.146,1.613 46.272,4.702c-5.268,65.798 -36.173,76.483 -63.4,77.977z" fill-rule="nonzero"/>
  </g>
 </g>
</svg>