<svg width="42" height="45" viewBox="0 0 42 45" fill="none" xmlns="http://www.w3.org/2000/svg">
<g id="arrow-right-02-round">
<path id="Vector (Stroke)" fill-rule="evenodd" clip-rule="evenodd" d="M33.3742 17.0145L22.2372 5.80187C21.5538 5.11381 20.4458 5.11381 19.7624 5.80187L8.62542 17.0145C7.942 17.7026 7.942 18.8182 8.62542 19.5062C9.30884 20.1943 10.4169 20.1943 11.1003 19.5062L19.2498 11.3013L19.2498 39.2381C19.2498 40.2112 20.0333 41 20.9998 41C21.9663 41 22.7498 40.2112 22.7498 39.2381L22.7498 11.3013L30.8993 19.5062C31.5827 20.1943 32.6907 20.1943 33.3742 19.5062C34.0576 18.8182 34.0576 17.7026 33.3742 17.0145Z" fill="white"/>
<path id="Vector 37" d="M32 5H10" stroke="white" stroke-width="4" stroke-linecap="round"/>
</g>
</svg>
