<svg width="54" height="54" viewBox="0 0 54 54" fill="none" xmlns="http://www.w3.org/2000/svg">
<g id="whatsapp" clip-path="url(#clip0_342_1360)">
<path id="Vector" d="M46.1311 7.84731C41.0548 2.78985 34.3048 0.00308567 27.1132 0C12.2937 0 0.233604 12.0032 0.227672 26.7568C0.225945 31.4729 1.46363 36.0764 3.81614 40.1343L0.00195312 54L14.2543 50.2793C18.181 52.4114 22.6024 53.5349 27.1016 53.5367H27.113H27.1132C41.9303 53.5367 53.9922 41.5314 53.9985 26.7785C54.0009 19.6282 51.2068 12.9051 46.1311 7.84731ZM27.1132 49.0174H27.1045C23.094 49.0153 19.1613 47.9433 15.731 45.9168L14.9146 45.435L6.45698 47.6427L8.71505 39.4358L8.18316 38.5945C5.94612 35.0532 4.76515 30.9607 4.76683 26.7585C4.77175 14.4958 14.7956 4.5195 27.1216 4.5195C33.0905 4.52197 38.7006 6.83834 42.9199 11.042C47.1389 15.2455 49.4607 20.8336 49.4589 26.7766C49.4537 39.0397 39.4294 49.0174 27.1132 49.0174Z" fill="#E0E0E0"/>
<path id="Vector_2" d="M1.23584 52.4614L4.8758 39.2291C2.63018 35.3565 1.44925 30.9629 1.45067 26.4632C1.45656 12.3837 12.9658 0.929199 27.1072 0.929199C33.9706 0.932285 40.4124 3.59161 45.2557 8.41817C50.1002 13.2447 52.7664 19.6602 52.7636 26.4831C52.7577 40.5629 41.2477 52.0184 27.1082 52.0184C27.1072 52.0184 27.1089 52.0184 27.1082 52.0184H27.0968C22.803 52.0171 18.584 50.944 14.8369 48.9107L1.23584 52.4614Z" fill="url(#paint0_linear_342_1360)"/>
<path id="Vector_3" fill-rule="evenodd" clip-rule="evenodd" d="M20.4695 15.3973C19.9721 14.2963 19.4484 14.2743 18.9752 14.255C18.5881 14.2385 18.145 14.2395 17.7026 14.2395C17.2598 14.2395 16.5403 14.4052 15.9319 15.0667C15.3231 15.7283 13.6074 17.3276 13.6074 20.5803C13.6074 23.8334 15.9873 26.9766 16.319 27.418C16.651 27.8588 20.9129 34.7472 27.6626 37.3972C33.2721 39.5996 34.4136 39.1615 35.6312 39.0513C36.8488 38.9411 39.56 37.4523 40.1134 35.9084C40.6669 34.3649 40.6669 33.0418 40.5009 32.7652C40.3348 32.4897 39.8921 32.3244 39.2279 31.9938C38.5638 31.6632 35.2991 30.0636 34.6904 29.8432C34.0816 29.6227 33.6388 29.5125 33.196 30.1745C32.7533 30.8357 31.4814 32.3244 31.094 32.7652C30.7065 33.2071 30.3191 33.2622 29.655 32.9316C28.9909 32.5999 26.8521 31.9025 24.3149 29.6503C22.3408 27.898 21.008 25.7339 20.6206 25.072C20.2332 24.4108 20.5791 24.0527 20.9122 23.7231C21.2104 23.4269 21.5764 22.9513 21.9084 22.5652C22.2398 22.1792 22.3505 21.9037 22.5719 21.4629C22.7932 21.0213 22.6826 20.6353 22.5165 20.3047C22.3505 19.9741 21.0599 16.7046 20.4695 15.3973Z" fill="white"/>
<path id="Vector_4" d="M45.9112 7.76238C40.8931 2.76297 34.2206 0.00825671 27.1116 0.00512695C12.4622 0.00512695 0.540518 11.8705 0.53463 26.4548C0.532903 31.1167 1.75638 35.6674 4.08188 39.6788L0.311523 53.3852L14.4002 49.7072C18.282 51.8148 22.6525 52.9255 27.1002 52.9272H27.1114H27.1116C41.7586 52.9272 53.6819 41.0597 53.6882 26.4761C53.6906 19.408 50.9285 12.7621 45.9112 7.76238ZM27.1116 48.4599H27.1029C23.1385 48.4578 19.2509 47.3981 15.86 45.3949L15.053 44.9186L6.69243 47.1009L8.92455 38.9883L8.39878 38.1566C6.18742 34.656 5.02 30.6105 5.02172 26.4565C5.02655 14.3346 14.9354 4.47283 27.1199 4.47283C33.0204 4.47526 38.5659 6.76505 42.7368 10.9204C46.9074 15.0757 49.2025 20.5996 49.2008 26.4745C49.1955 38.5967 39.2864 48.4599 27.1116 48.4599Z" fill="white"/>
</g>
<defs>
<linearGradient id="paint0_linear_342_1360" x1="26.9997" y1="52.4614" x2="26.9997" y2="0.929285" gradientUnits="userSpaceOnUse">
<stop stop-color="#20B038"/>
<stop offset="1" stop-color="#60D66A"/>
</linearGradient>
<clipPath id="clip0_342_1360">
<rect width="54" height="54" fill="white"/>
</clipPath>
</defs>
</svg>
