<svg width="40" height="40" viewBox="0 0 40 40" fill="none" xmlns="http://www.w3.org/2000/svg">
<g id="whatsapp" clip-path="url(#clip0_312_638)">
<path id="Vector" fill-rule="evenodd" clip-rule="evenodd" d="M15.1621 11.4054C14.7937 10.5898 14.4057 10.5735 14.0552 10.5592C13.7685 10.547 13.4403 10.5477 13.1126 10.5477C12.7846 10.5477 12.2516 10.6704 11.8009 11.1605C11.35 11.6505 10.0791 12.8352 10.0791 15.2446C10.0791 17.6543 11.8419 19.9826 12.0877 20.3096C12.3336 20.6361 15.4906 25.7386 20.4903 27.7016C24.6455 29.333 25.4911 29.0085 26.393 28.9268C27.2949 28.8452 29.3032 27.7424 29.7132 26.5988C30.1231 25.4554 30.1231 24.4754 30.0002 24.2705C29.8772 24.0664 29.5492 23.944 29.0572 23.6991C28.5653 23.4542 26.147 22.2693 25.6961 22.106C25.2451 21.9427 24.9172 21.8611 24.5892 22.3514C24.2612 22.8412 23.3191 23.944 23.0321 24.2705C22.7451 24.5978 22.4581 24.6386 21.9662 24.3937C21.4742 24.148 19.89 23.6315 18.0106 21.9631C16.5483 20.6652 15.561 19.0621 15.2741 18.5718C14.9871 18.082 15.2433 17.8167 15.4901 17.5726C15.7109 17.3532 15.982 17.0009 16.228 16.7149C16.4735 16.429 16.5554 16.2249 16.7194 15.8984C16.8834 15.5713 16.8014 15.2854 16.6784 15.0405C16.5554 14.7956 15.5995 12.3737 15.1621 11.4054Z" fill="#C0A04C"/>
<path id="Vector_2" d="M34.008 5.74984C30.2909 2.04657 25.3483 0.00604148 20.0824 0.00372314C9.23093 0.00372314 0.400095 8.7929 0.395733 19.5961C0.394453 23.0494 1.30073 26.4202 3.02332 29.3916L0.230469 39.5445L10.6666 36.8201C13.5419 38.3812 16.7793 39.204 20.0739 39.2052H20.0823H20.0824C30.932 39.2052 39.7641 30.4145 39.7687 19.6119C39.7705 14.3762 37.7246 9.45336 34.008 5.74984ZM20.0824 35.8961H20.076C17.1394 35.8946 14.2596 35.1096 11.7478 33.6257L11.15 33.2729L4.95707 34.8895L6.61049 28.8801L6.22103 28.2641C4.58298 25.671 3.71823 22.6743 3.71951 19.5974C3.72308 10.6181 11.0629 3.31313 20.0885 3.31313C24.4592 3.31493 28.5671 5.01107 31.6566 8.0891C34.7459 11.1671 36.446 15.2589 36.4447 19.6106C36.4409 28.5901 29.1007 35.8961 20.0824 35.8961Z" fill="#C0A04C"/>
</g>
<defs>
<clipPath id="clip0_312_638">
<rect width="40" height="40" fill="white"/>
</clipPath>
</defs>
</svg>
