<svg width="32" height="32" viewBox="0 0 32 32" fill="none" xmlns="http://www.w3.org/2000/svg">
<g id="back-arrow" clip-path="url(#clip0_25_149)">
<g id="Layer 2">
<g id="arrow-back">
<path id="Vector" d="M25.333 14.6667H9.51967L14.3597 8.85334C14.586 8.58106 14.6949 8.23002 14.6624 7.87745C14.6299 7.52488 14.4586 7.19966 14.1863 6.97334C13.9141 6.74703 13.563 6.63814 13.2104 6.67065C12.8579 6.70316 12.5327 6.87439 12.3063 7.14668L5.63967 15.1467C5.59482 15.2103 5.55471 15.2772 5.51967 15.3467C5.51967 15.4133 5.51967 15.4533 5.42634 15.52C5.36591 15.6729 5.33426 15.8356 5.33301 16C5.33426 16.1644 5.36591 16.3271 5.42634 16.48C5.42634 16.5467 5.42634 16.5867 5.51967 16.6533C5.55471 16.7229 5.59482 16.7897 5.63967 16.8533L12.3063 24.8533C12.4317 25.0039 12.5887 25.1249 12.7661 25.2079C12.9436 25.2908 13.1371 25.3337 13.333 25.3333C13.6445 25.334 13.9465 25.2255 14.1863 25.0267C14.3214 24.9147 14.433 24.7773 14.5148 24.6221C14.5966 24.467 14.647 24.2973 14.6631 24.1226C14.6792 23.948 14.6606 23.7719 14.6086 23.6044C14.5565 23.437 14.4719 23.2814 14.3597 23.1467L9.51967 17.3333H25.333C25.6866 17.3333 26.0258 17.1929 26.2758 16.9428C26.5259 16.6928 26.6663 16.3536 26.6663 16C26.6663 15.6464 26.5259 15.3073 26.2758 15.0572C26.0258 14.8072 25.6866 14.6667 25.333 14.6667Z" fill="#1C1C1C"/>
</g>
</g>
</g>
<defs>
<clipPath id="clip0_25_149">
<rect width="32" height="32" fill="white"/>
</clipPath>
</defs>
</svg>
