<svg width="25" height="25" viewBox="0 0 25 25" fill="none" xmlns="http://www.w3.org/2000/svg">
<g id="calendar">
<path id="Vector" d="M12.5 14.5C12.6978 14.5 12.8911 14.4414 13.0556 14.3315C13.22 14.2216 13.3482 14.0654 13.4239 13.8827C13.4996 13.7 13.5194 13.4989 13.4808 13.3049C13.4422 13.1109 13.347 12.9327 13.2071 12.7929C13.0673 12.653 12.8891 12.5578 12.6951 12.5192C12.5011 12.4806 12.3 12.5004 12.1173 12.5761C11.9346 12.6518 11.7784 12.78 11.6685 12.9444C11.5586 13.1089 11.5 13.3022 11.5 13.5C11.5 13.7652 11.6054 14.0196 11.7929 14.2071C11.9804 14.3946 12.2348 14.5 12.5 14.5ZM17.5 14.5C17.6978 14.5 17.8911 14.4414 18.0556 14.3315C18.22 14.2216 18.3482 14.0654 18.4239 13.8827C18.4996 13.7 18.5194 13.4989 18.4808 13.3049C18.4422 13.1109 18.347 12.9327 18.2071 12.7929C18.0673 12.653 17.8891 12.5578 17.6951 12.5192C17.5011 12.4806 17.3 12.5004 17.1173 12.5761C16.9346 12.6518 16.7784 12.78 16.6685 12.9444C16.5586 13.1089 16.5 13.3022 16.5 13.5C16.5 13.7652 16.6054 14.0196 16.7929 14.2071C16.9804 14.3946 17.2348 14.5 17.5 14.5ZM12.5 18.5C12.6978 18.5 12.8911 18.4414 13.0556 18.3315C13.22 18.2216 13.3482 18.0654 13.4239 17.8827C13.4996 17.7 13.5194 17.4989 13.4808 17.3049C13.4422 17.1109 13.347 16.9327 13.2071 16.7929C13.0673 16.653 12.8891 16.5578 12.6951 16.5192C12.5011 16.4806 12.3 16.5004 12.1173 16.5761C11.9346 16.6518 11.7784 16.78 11.6685 16.9444C11.5586 17.1089 11.5 17.3022 11.5 17.5C11.5 17.7652 11.6054 18.0196 11.7929 18.2071C11.9804 18.3946 12.2348 18.5 12.5 18.5ZM17.5 18.5C17.6978 18.5 17.8911 18.4414 18.0556 18.3315C18.22 18.2216 18.3482 18.0654 18.4239 17.8827C18.4996 17.7 18.5194 17.4989 18.4808 17.3049C18.4422 17.1109 18.347 16.9327 18.2071 16.7929C18.0673 16.653 17.8891 16.5578 17.6951 16.5192C17.5011 16.4806 17.3 16.5004 17.1173 16.5761C16.9346 16.6518 16.7784 16.78 16.6685 16.9444C16.5586 17.1089 16.5 17.3022 16.5 17.5C16.5 17.7652 16.6054 18.0196 16.7929 18.2071C16.9804 18.3946 17.2348 18.5 17.5 18.5ZM7.5 14.5C7.69778 14.5 7.89112 14.4414 8.05557 14.3315C8.22002 14.2216 8.34819 14.0654 8.42388 13.8827C8.49957 13.7 8.51937 13.4989 8.48079 13.3049C8.4422 13.1109 8.34696 12.9327 8.20711 12.7929C8.06725 12.653 7.88907 12.5578 7.69509 12.5192C7.50111 12.4806 7.30004 12.5004 7.11732 12.5761C6.93459 12.6518 6.77841 12.78 6.66853 12.9444C6.55865 13.1089 6.5 13.3022 6.5 13.5C6.5 13.7652 6.60536 14.0196 6.79289 14.2071C6.98043 14.3946 7.23478 14.5 7.5 14.5ZM19.5 4.5H18.5V3.5C18.5 3.23478 18.3946 2.98043 18.2071 2.79289C18.0196 2.60536 17.7652 2.5 17.5 2.5C17.2348 2.5 16.9804 2.60536 16.7929 2.79289C16.6054 2.98043 16.5 3.23478 16.5 3.5V4.5H8.5V3.5C8.5 3.23478 8.39464 2.98043 8.20711 2.79289C8.01957 2.60536 7.76522 2.5 7.5 2.5C7.23478 2.5 6.98043 2.60536 6.79289 2.79289C6.60536 2.98043 6.5 3.23478 6.5 3.5V4.5H5.5C4.70435 4.5 3.94129 4.81607 3.37868 5.37868C2.81607 5.94129 2.5 6.70435 2.5 7.5V19.5C2.5 20.2956 2.81607 21.0587 3.37868 21.6213C3.94129 22.1839 4.70435 22.5 5.5 22.5H19.5C20.2956 22.5 21.0587 22.1839 21.6213 21.6213C22.1839 21.0587 22.5 20.2956 22.5 19.5V7.5C22.5 6.70435 22.1839 5.94129 21.6213 5.37868C21.0587 4.81607 20.2956 4.5 19.5 4.5ZM20.5 19.5C20.5 19.7652 20.3946 20.0196 20.2071 20.2071C20.0196 20.3946 19.7652 20.5 19.5 20.5H5.5C5.23478 20.5 4.98043 20.3946 4.79289 20.2071C4.60536 20.0196 4.5 19.7652 4.5 19.5V10.5H20.5V19.5ZM20.5 8.5H4.5V7.5C4.5 7.23478 4.60536 6.98043 4.79289 6.79289C4.98043 6.60536 5.23478 6.5 5.5 6.5H19.5C19.7652 6.5 20.0196 6.60536 20.2071 6.79289C20.3946 6.98043 20.5 7.23478 20.5 7.5V8.5ZM7.5 18.5C7.69778 18.5 7.89112 18.4414 8.05557 18.3315C8.22002 18.2216 8.34819 18.0654 8.42388 17.8827C8.49957 17.7 8.51937 17.4989 8.48079 17.3049C8.4422 17.1109 8.34696 16.9327 8.20711 16.7929C8.06725 16.653 7.88907 16.5578 7.69509 16.5192C7.50111 16.4806 7.30004 16.5004 7.11732 16.5761C6.93459 16.6518 6.77841 16.78 6.66853 16.9444C6.55865 17.1089 6.5 17.3022 6.5 17.5C6.5 17.7652 6.60536 18.0196 6.79289 18.2071C6.98043 18.3946 7.23478 18.5 7.5 18.5Z" fill="#1C1C1C"/>
</g>
</svg>
