<svg width="24" height="24" viewBox="0 0 24 24" fill="none" xmlns="http://www.w3.org/2000/svg">
<path d="M20.0325 19.995H3.96753C3.12246 19.994 2.31228 19.6579 1.71472 19.0603C1.11717 18.4628 0.781022 17.6526 0.780029 16.8075V7.1925C0.781022 6.34743 1.11717 5.53726 1.71472 4.9397C2.31228 4.34214 3.12246 4.006 3.96753 4.005H20.0325C20.8776 4.006 21.6878 4.34214 22.2853 4.9397C22.8829 5.53726 23.219 6.34743 23.22 7.1925V16.8075C23.219 17.6526 22.8829 18.4628 22.2853 19.0603C21.6878 19.6579 20.8776 19.994 20.0325 19.995ZM3.96753 5.13C3.42052 5.13 2.89592 5.3473 2.50912 5.7341C2.12233 6.12089 1.90503 6.6455 1.90503 7.1925V16.8075C1.90503 17.3545 2.12233 17.8791 2.50912 18.2659C2.89592 18.6527 3.42052 18.87 3.96753 18.87H20.0325C20.5795 18.87 21.1041 18.6527 21.4909 18.2659C21.8777 17.8791 22.095 17.3545 22.095 16.8075V7.1925C22.095 6.6455 21.8777 6.12089 21.4909 5.7341C21.1041 5.3473 20.5795 5.13 20.0325 5.13H3.96753Z" fill="white"/>
<path d="M12 14.28C11.3061 14.2811 10.6308 14.056 10.0763 13.6387L1.32005 7.01624C1.25818 6.97282 1.2057 6.91738 1.16574 6.85322C1.12578 6.78907 1.09915 6.71752 1.08746 6.64284C1.07577 6.56817 1.07924 6.49191 1.09768 6.41861C1.11612 6.34531 1.14914 6.27647 1.19477 6.21622C1.2404 6.15596 1.29771 6.10553 1.36327 6.06791C1.42883 6.0303 1.5013 6.00628 1.57634 5.9973C1.65139 5.98832 1.72748 5.99456 1.80006 6.01563C1.87265 6.03671 1.94024 6.0722 1.9988 6.11999L10.7551 12.75C11.1146 13.0184 11.5513 13.1634 12 13.1634C12.4488 13.1634 12.8855 13.0184 13.2451 12.75L22.0013 6.11999C22.0599 6.0722 22.1275 6.03671 22.2 6.01563C22.2726 5.99456 22.3487 5.98832 22.4238 5.9973C22.4988 6.00628 22.5713 6.0303 22.6368 6.06791C22.7024 6.10553 22.7597 6.15596 22.8053 6.21622C22.851 6.27647 22.884 6.34531 22.9024 6.41861C22.9209 6.49191 22.9243 6.56817 22.9126 6.64284C22.9009 6.71752 22.8743 6.78907 22.8344 6.85322C22.7944 6.91738 22.7419 6.97282 22.68 7.01624L13.9238 13.6387C13.3693 14.056 12.694 14.2811 12 14.28Z" fill="white"/>
<path d="M1.56369 18.4275C1.44961 18.4277 1.33817 18.3931 1.24416 18.3285C1.15016 18.2639 1.07803 18.1722 1.03734 18.0656C0.996663 17.959 0.989352 17.8426 1.01638 17.7317C1.04341 17.6209 1.10351 17.5209 1.18869 17.445L8.08869 11.2912C8.20008 11.1918 8.34642 11.1407 8.49551 11.1491C8.6446 11.1575 8.78424 11.2249 8.88369 11.3362C8.98315 11.4476 9.03428 11.594 9.02584 11.7431C9.0174 11.8922 8.95008 12.0318 8.83869 12.1312L1.93869 18.285C1.83622 18.3782 1.70222 18.4291 1.56369 18.4275ZM22.4362 18.4275C22.2977 18.4291 22.1637 18.3782 22.0612 18.285L15.1612 12.1312C15.0498 12.0318 14.9825 11.8922 14.974 11.7431C14.9656 11.594 15.0167 11.4476 15.1162 11.3362C15.2156 11.2249 15.3553 11.1575 15.5044 11.1491C15.6535 11.1407 15.7998 11.1918 15.9112 11.2912L22.8074 17.445C22.8926 17.5209 22.9527 17.6209 22.9797 17.7317C23.0068 17.8426 22.9995 17.959 22.9588 18.0656C22.9181 18.1722 22.846 18.2639 22.752 18.3285C22.658 18.3931 22.5465 18.4277 22.4324 18.4275H22.4362Z" fill="white"/>
</svg>
