<svg width="24" height="24" viewBox="0 0 24 24" fill="none" xmlns="http://www.w3.org/2000/svg">
<g id="heart">
<path id="Vector" d="M21.171 4.87907C20.111 3.81628 18.7058 3.16761 17.2094 3.05024C15.7129 2.93287 14.2238 3.35454 13.011 4.23907C11.7387 3.29271 10.155 2.86358 8.57894 3.03811C7.00287 3.21264 5.55146 3.97785 4.51699 5.17966C3.48252 6.38146 2.94184 7.93059 3.00382 9.51509C3.0658 11.0996 3.72584 12.6017 4.85102 13.7191L11.061 19.9391C11.581 20.4509 12.2814 20.7377 13.011 20.7377C13.7406 20.7377 14.441 20.4509 14.961 19.9391L21.171 13.7191C22.3386 12.5443 22.9939 10.9553 22.9939 9.29907C22.9939 7.6428 22.3386 6.0538 21.171 4.87907ZM19.761 12.3391L13.551 18.5491C13.4804 18.6204 13.3962 18.6771 13.3036 18.7157C13.2109 18.7544 13.1114 18.7743 13.011 18.7743C12.9106 18.7743 12.8112 18.7544 12.7185 18.7157C12.6258 18.6771 12.5417 18.6204 12.471 18.5491L6.26102 12.3091C5.47678 11.5074 5.03763 10.4305 5.03763 9.30907C5.03763 8.18761 5.47678 7.11073 6.26102 6.30907C7.06017 5.52006 8.13799 5.07764 9.26102 5.07764C10.384 5.07764 11.4619 5.52006 12.261 6.30907C12.354 6.4028 12.4646 6.47719 12.5864 6.52796C12.7083 6.57873 12.839 6.60487 12.971 6.60487C13.103 6.60487 13.2337 6.57873 13.3556 6.52796C13.4775 6.47719 13.5881 6.4028 13.681 6.30907C14.4802 5.52006 15.558 5.07764 16.681 5.07764C17.804 5.07764 18.8819 5.52006 19.681 6.30907C20.476 7.10022 20.9296 8.17126 20.9446 9.29276C20.9595 10.4143 20.5347 11.497 19.761 12.3091V12.3391Z" fill="#2C2C2C"/>
</g>
</svg>
