<svg width="32" height="32" viewBox="0 0 32 32" fill="none" xmlns="http://www.w3.org/2000/svg">
<g id="like" clip-path="url(#clip0_398_385)">
<path id="Vector" d="M28 12H20V6C20 3.794 18.206 2 16 2H13C12.7348 2 12.4804 2.10536 12.2929 2.29289C12.1054 2.48043 12 2.73478 12 3V7.734L8.132 14.504C8.04498 14.6548 7.99944 14.8259 8 15V29C8 29.2652 8.10536 29.5196 8.29289 29.7071C8.48043 29.8946 8.73478 30 9 30H25.05C25.8236 29.9997 26.5805 29.7751 27.229 29.3534C27.8776 28.9317 28.3899 28.331 28.704 27.624L31.912 20.406C31.97 20.2785 32 20.1401 32 20V16C32 13.794 30.206 12 28 12ZM0 15V29C0 29.2652 0.105357 29.5196 0.292893 29.7071C0.48043 29.8946 0.734784 30 1 30H6V14H1C0.734784 14 0.48043 14.1054 0.292893 14.2929C0.105357 14.4804 0 14.7348 0 15Z" fill="#147FD3"/>
<path id="Vector_2" d="M19 12V13H20H28C29.6537 13 31 14.3463 31 16V19.9958L30.9982 19.9999L27.7902 27.2179L27.7901 27.218C27.5546 27.7482 27.1703 28.1988 26.6839 28.515C26.1976 28.8313 25.6301 28.9997 25.05 29C25.0499 29 25.0498 29 25.0496 29H9V15.0006L9.00027 15.0001L12.8683 8.23008L13 7.99953V7.734V3L16 3C17.6537 3 19 4.34628 19 6V12ZM1 29V15H5V29H1Z" stroke="white" stroke-width="2"/>
</g>
<defs>
<clipPath id="clip0_398_385">
<rect width="32" height="32" fill="white"/>
</clipPath>
</defs>
</svg>
