<svg width="28" height="28" viewBox="0 0 28 28" fill="none" xmlns="http://www.w3.org/2000/svg">
<g clip-path="url(#clip0_52_4177)">
<path fill-rule="evenodd" clip-rule="evenodd" d="M18.1043 8.47805C18.6169 7.96555 19.4479 7.96566 19.9604 8.47829L24.553 13.072C25.0654 13.5846 25.0654 14.4154 24.553 14.928L19.9604 19.5217C19.4479 20.0343 18.6169 20.0344 18.1043 19.5219C17.5916 19.0095 17.5915 18.1784 18.104 17.6658L21.7689 14L18.104 10.3342C17.5915 9.82158 17.5916 8.99055 18.1043 8.47805Z" fill="white"/>
<path fill-rule="evenodd" clip-rule="evenodd" d="M10.0625 14C10.0625 13.2751 10.6501 12.6875 11.375 12.6875H23.6218C24.3467 12.6875 24.9343 13.2751 24.9343 14C24.9343 14.7249 24.3467 15.3125 23.6218 15.3125H11.375C10.6501 15.3125 10.0625 14.7249 10.0625 14Z" fill="white"/>
<path fill-rule="evenodd" clip-rule="evenodd" d="M5.6875 5.6875H11.375C12.0999 5.6875 12.6875 5.09987 12.6875 4.375C12.6875 3.65013 12.0999 3.0625 11.375 3.0625H5.25C4.66984 3.0625 4.11344 3.29297 3.7032 3.7032C3.29297 4.11344 3.0625 4.66984 3.0625 5.25V22.75C3.0625 23.3302 3.29297 23.8866 3.7032 24.2968C4.11344 24.707 4.66984 24.9375 5.25 24.9375H11.375C12.0999 24.9375 12.6875 24.3499 12.6875 23.625C12.6875 22.9001 12.0999 22.3125 11.375 22.3125H5.6875V5.6875Z" fill="white"/>
</g>
<defs>
<clipPath id="clip0_52_4177">
<rect width="28" height="28" fill="white"/>
</clipPath>
</defs>
</svg>
