<svg width="82" height="28" viewBox="0 0 82 28" fill="none" xmlns="http://www.w3.org/2000/svg">
<path d="M30.1835 2.76L34.4318 25.28L38.1137 25.64C38.1137 26.36 37.8844 27.1467 37.4259 28H28.12L27.9986 26.6C28.8078 26.2533 29.8058 25.9733 30.9927 25.76L26.6634 3.32L21.3226 26.08H17.3171L9.95326 3.24L6.67597 25.28L10.1151 25.6C10.1151 26.3467 9.88583 27.1467 9.42728 28H0.121381L0 26.6C1.18684 26.1733 2.37368 25.8533 3.56052 25.64L7.12103 2.44C5.47564 2.2 4.16742 1.92 3.19637 1.6L3.35821 0H12.7855L19.2187 21.92H19.3805L24.3976 0H33.4203C33.8789 0.853333 34.1081 1.68 34.1081 2.48C32.3548 2.66667 31.0466 2.76 30.1835 2.76Z" fill="white"/>
<path d="M53.4619 23.8L58.8027 2.36C57.7237 2.14667 56.5099 1.82667 55.1613 1.4L55.2826 0H65.3977C65.8563 0.853333 66.0856 1.65333 66.0856 2.4C64.602 2.48 63.3073 2.56 62.2014 2.64L55.1613 28H51.358L44.3988 4.52L38.087 28H33.8791L26.6367 2.36C25.5577 2.14667 24.3439 1.82667 22.9952 1.4L23.1166 0H33.6363C34.0949 0.853333 34.3241 1.65333 34.3241 2.4C33.0024 2.48 31.7886 2.56 30.6827 2.64L35.8212 23.8H35.983C36.8462 20.12 38.006 15.68 39.4626 10.48C40.9462 5.28 41.9307 1.8 42.4162 0.0399995H46.786L53.3001 23.8H53.4619Z" fill="white"/>
<path d="M72.4513 2.48C72.3165 6.96 72.1681 14.56 72.0063 25.28L75.4049 25.6C75.4049 26.3467 75.1757 27.1467 74.7171 28H65.4112L65.2898 26.6C66.8543 26.04 68.0951 25.72 69.0122 25.64C68.7425 15.3467 68.5267 7.62667 68.3648 2.48H62.4576L61.4866 6.56L59.1399 6.4C58.7353 4.77333 58.533 3.12 58.533 1.44C58.533 1.12 58.5599 0.64 58.6139 0H81.9191C81.973 0.346667 82 0.880001 82 1.6C82 3.04 81.8112 4.61333 81.4335 6.32C80.8401 6.48 80.0579 6.56 79.0868 6.56L78.0753 2.48H72.4513Z" fill="white"/>
</svg>
