<svg width="24" height="24" viewBox="0 0 24 24" fill="none" xmlns="http://www.w3.org/2000/svg">
<path d="M12.0285 23.3639C12.2125 23.3628 12.3907 23.2996 12.5342 23.1844C12.8441 22.9071 21.0004 16.3332 21.0004 9.49824C21.0004 7.11875 20.0551 4.83672 18.3726 3.15417C16.69 1.47162 14.408 0.526367 12.0285 0.526367C9.64903 0.526367 7.367 1.47162 5.68444 3.15417C4.00189 4.83672 3.05664 7.11875 3.05664 9.49824C3.05664 16.3332 11.2129 22.9071 11.5228 23.1844C11.6663 23.2996 11.8445 23.3628 12.0285 23.3639ZM4.68789 9.49824C4.68789 7.55139 5.46128 5.68427 6.83791 4.30764C8.21454 2.931 10.0817 2.15762 12.0285 2.15762C13.9754 2.15762 15.8425 2.931 17.2191 4.30764C18.5958 5.68427 19.3691 7.55139 19.3691 9.49824C19.3691 14.6367 13.7658 19.9464 12.0285 21.4798C10.2912 19.9464 4.68789 14.6367 4.68789 9.49824Z" fill="white"/>
<path d="M16.1074 9.49903C16.1074 8.69245 15.8682 7.90399 15.4201 7.23334C14.972 6.5627 14.3351 6.03999 13.5899 5.73133C12.8448 5.42267 12.0248 5.3419 11.2337 5.49926C10.4426 5.65662 9.71597 6.04502 9.14563 6.61536C8.57529 7.18569 8.18689 7.91234 8.02953 8.70342C7.87218 9.4945 7.95294 10.3145 8.2616 11.0597C8.57027 11.8048 9.09297 12.4418 9.76361 12.8899C10.4343 13.338 11.2227 13.5772 12.0293 13.5772C13.1109 13.5772 14.1482 13.1475 14.913 12.3827C15.6778 11.6179 16.1074 10.5806 16.1074 9.49903ZM9.58242 9.49903C9.58242 9.01508 9.72593 8.542 9.9948 8.13961C10.2637 7.73723 10.6458 7.42361 11.0929 7.23841C11.54 7.05321 12.032 7.00475 12.5067 7.09917C12.9813 7.19358 13.4173 7.42662 13.7595 7.76882C14.1017 8.11103 14.3347 8.54702 14.4292 9.02166C14.5236 9.49631 14.4751 9.9883 14.2899 10.4354C14.1047 10.8825 13.7911 11.2647 13.3887 11.5335C12.9863 11.8024 12.5132 11.9459 12.0293 11.9459C11.3803 11.9459 10.758 11.6881 10.2991 11.2292C9.84022 10.7704 9.58242 10.148 9.58242 9.49903Z" fill="white"/>
</svg>
