<svg xmlns="http://www.w3.org/2000/svg" width="24" height="24" viewBox="0 0 24 24" fill="none">
  <path d="M21.1715 4.87858C20.1115 3.81579 18.7063 3.16712 17.2098 3.04975C15.7134 2.93238 14.2243 3.35405 13.0115 4.23858C11.7392 3.29222 10.1555 2.86309 8.57943 3.03762C7.00336 3.21215 5.55195 3.97736 4.51748 5.17917C3.48301 6.38098 2.94233 7.9301 3.00431 9.5146C3.06629 11.0991 3.72632 12.6013 4.85151 13.7186L11.0615 19.9386C11.5815 20.4504 12.2819 20.7372 13.0115 20.7372C13.7411 20.7372 14.4415 20.4504 14.9615 19.9386L21.1715 13.7186C22.3391 12.5438 22.9944 10.9549 22.9944 9.29858C22.9944 7.64231 22.3391 6.05332 21.1715 4.87858ZM19.7615 12.3386L13.5515 18.5486C13.4808 18.6199 13.3967 18.6766 13.304 18.7152C13.2114 18.7539 13.1119 18.7738 13.0115 18.7738C12.9111 18.7738 12.8117 18.7539 12.719 18.7152C12.6263 18.6766 12.5422 18.6199 12.4715 18.5486L6.26151 12.3086C5.47726 11.5069 5.03812 10.43 5.03812 9.30858C5.03812 8.18712 5.47726 7.11024 6.26151 6.30858C7.06066 5.51957 8.13848 5.07715 9.26151 5.07715C10.3845 5.07715 11.4624 5.51957 12.2615 6.30858C12.3545 6.40231 12.4651 6.47671 12.5869 6.52747C12.7088 6.57824 12.8395 6.60438 12.9715 6.60438C13.1035 6.60438 13.2342 6.57824 13.3561 6.52747C13.4779 6.47671 13.5885 6.40231 13.6815 6.30858C14.4807 5.51957 15.5585 5.07715 16.6815 5.07715C17.8045 5.07715 18.8824 5.51957 19.6815 6.30858C20.4765 7.09973 20.9301 8.17077 20.945 9.29227C20.96 10.4138 20.5352 11.4965 19.7615 12.3086V12.3386Z" fill="#2C2C2C" fill-opacity="0.4"/>
</svg>