<svg width="48" height="48" viewBox="0 0 48 48" fill="none" xmlns="http://www.w3.org/2000/svg">
<path d="M38 25.9998C37.4696 25.9998 36.9609 26.2105 36.5858 26.5856C36.2107 26.9607 36 27.4694 36 27.9998V28.7598L33.04 25.7998C31.9948 24.7629 30.5823 24.181 29.11 24.181C27.6377 24.181 26.2252 24.7629 25.18 25.7998L23.78 27.1998L18.82 22.2398C17.7602 21.231 16.3531 20.6684 14.89 20.6684C13.4269 20.6684 12.0198 21.231 10.96 22.2398L8 25.1998V13.9998C8 13.4694 8.21071 12.9607 8.58579 12.5856C8.96086 12.2105 9.46957 11.9998 10 11.9998H24C24.5304 11.9998 25.0391 11.7891 25.4142 11.414C25.7893 11.0389 26 10.5302 26 9.99979C26 9.46936 25.7893 8.96065 25.4142 8.58558C25.0391 8.21051 24.5304 7.99979 24 7.99979H10C8.4087 7.99979 6.88258 8.63193 5.75736 9.75715C4.63214 10.8824 4 12.4085 4 13.9998V37.9998C4 39.5911 4.63214 41.1172 5.75736 42.2424C6.88258 43.3677 8.4087 43.9998 10 43.9998H34C35.5913 43.9998 37.1174 43.3677 38.2426 42.2424C39.3679 41.1172 40 39.5911 40 37.9998V27.9998C40 27.4694 39.7893 26.9607 39.4142 26.5856C39.0391 26.2105 38.5304 25.9998 38 25.9998ZM10 39.9998C9.46957 39.9998 8.96086 39.7891 8.58579 39.414C8.21071 39.0389 8 38.5302 8 37.9998V30.8598L13.8 25.0598C14.0938 24.7798 14.4841 24.6236 14.89 24.6236C15.2959 24.6236 15.6862 24.7798 15.98 25.0598L22.32 31.3998L30.92 39.9998H10ZM36 37.9998C35.9971 38.3826 35.8709 38.7544 35.64 39.0598L26.62 29.9998L28.02 28.5998C28.1634 28.4534 28.3345 28.3372 28.5234 28.2578C28.7123 28.1784 28.9151 28.1376 29.12 28.1376C29.3249 28.1376 29.5277 28.1784 29.7166 28.2578C29.9055 28.3372 30.0766 28.4534 30.22 28.5998L36 34.4198V37.9998ZM45.42 8.57979L39.42 2.57979C39.2298 2.39771 39.0055 2.25498 38.76 2.15979C38.2731 1.95976 37.7269 1.95976 37.24 2.15979C36.9945 2.25498 36.7702 2.39771 36.58 2.57979L30.58 8.57979C30.3935 8.76627 30.2456 8.98765 30.1447 9.23129C30.0438 9.47494 29.9918 9.73607 29.9918 9.99979C29.9918 10.5324 30.2034 11.0432 30.58 11.4198C30.9566 11.7964 31.4674 12.008 32 12.008C32.5326 12.008 33.0434 11.7964 33.42 11.4198L36 8.81979V19.9998C36 20.5302 36.2107 21.0389 36.5858 21.414C36.9609 21.7891 37.4696 21.9998 38 21.9998C38.5304 21.9998 39.0391 21.7891 39.4142 21.414C39.7893 21.0389 40 20.5302 40 19.9998V8.81979L42.58 11.4198C42.7659 11.6072 42.9871 11.756 43.2308 11.8576C43.4746 11.9591 43.736 12.0114 44 12.0114C44.264 12.0114 44.5254 11.9591 44.7692 11.8576C45.0129 11.756 45.2341 11.6072 45.42 11.4198C45.6075 11.2339 45.7562 11.0127 45.8578 10.7689C45.9593 10.5252 46.0116 10.2638 46.0116 9.99979C46.0116 9.73577 45.9593 9.47436 45.8578 9.23064C45.7562 8.98692 45.6075 8.76572 45.42 8.57979Z" fill="#1C1C1C" fill-opacity="0.4"/>
</svg>
