<svg width="40" height="40" viewBox="0 0 40 40" fill="none" xmlns="http://www.w3.org/2000/svg">
<g clip-path="url(#clip0_1464_138)">
<path fill-rule="evenodd" clip-rule="evenodd" d="M15.1626 11.4055C14.7942 10.5899 14.4062 10.5736 14.0557 10.5594C13.769 10.5471 13.4408 10.5479 13.113 10.5479C12.7851 10.5479 12.2521 10.6706 11.8014 11.1606C11.3505 11.6507 10.0796 12.8353 10.0796 15.2447C10.0796 17.6544 11.8424 19.9827 12.0881 20.3097C12.3341 20.6363 15.4911 25.7387 20.4908 27.7017C24.646 29.3331 25.4916 29.0086 26.3935 28.927C27.2954 28.8453 29.3037 27.7425 29.7137 26.5989C30.1236 25.4556 30.1236 24.4755 30.0006 24.2706C29.8777 24.0665 29.5497 23.9441 29.0577 23.6992C28.5658 23.4543 26.1475 22.2694 25.6966 22.1061C25.2456 21.9428 24.9176 21.8612 24.5897 22.3515C24.2617 22.8413 23.3196 23.9441 23.0326 24.2706C22.7456 24.5979 22.4586 24.6387 21.9667 24.3938C21.4747 24.1482 19.8905 23.6316 18.0111 21.9632C16.5488 20.6653 15.5615 19.0622 15.2746 18.572C14.9876 18.0822 15.2438 17.8169 15.4906 17.5727C15.7114 17.3533 15.9825 17.001 16.2285 16.7151C16.4739 16.4291 16.5559 16.225 16.7199 15.8985C16.8839 15.5714 16.8019 15.2855 16.6789 15.0406C16.5559 14.7957 15.6 12.3739 15.1626 11.4055Z" fill="white"/>
<path d="M34.0085 5.75002C30.2914 2.04675 25.3488 0.00622459 20.0828 0.00390625C9.23142 0.00390625 0.400583 8.79308 0.396221 19.5962C0.394942 23.0495 1.30122 26.4204 3.02381 29.3918L0.230957 39.5447L10.667 36.8202C13.5424 38.3814 16.7798 39.2041 20.0744 39.2054H20.0827H20.0828C30.9325 39.2054 39.7646 30.4147 39.7692 19.612C39.771 14.3764 37.725 9.45355 34.0085 5.75002ZM20.0828 35.8963H20.0765C17.1398 35.8948 14.2601 35.1098 11.7483 33.6259L11.1505 33.2731L4.95755 34.8897L6.61098 28.8803L6.22152 28.2643C4.58347 25.6712 3.71872 22.6745 3.71999 19.5975C3.72357 10.6183 11.0634 3.31332 20.089 3.31332C24.4597 3.31511 28.5675 5.01125 31.6571 8.08929C34.7464 11.1673 36.4465 15.2591 36.4452 19.6108C36.4413 28.5903 29.1012 35.8963 20.0828 35.8963Z" fill="white"/>
</g>
<defs>
<clipPath id="clip0_1464_138">
<rect width="40" height="40" fill="white"/>
</clipPath>
</defs>
</svg>
