<svg width="40" height="40" viewBox="0 0 40 40" fill="none" xmlns="http://www.w3.org/2000/svg">
<g id="whatsapp" clip-path="url(#clip0_216_906)">
<path id="Vector" fill-rule="evenodd" clip-rule="evenodd" d="M15.1631 11.4054C14.7946 10.5898 14.4067 10.5735 14.0562 10.5592C13.7695 10.547 13.4412 10.5477 13.1135 10.5477C12.7856 10.5477 12.2526 10.6704 11.8019 11.1605C11.351 11.6505 10.0801 12.8352 10.0801 15.2446C10.0801 17.6543 11.8429 19.9826 12.0886 20.3096C12.3346 20.6361 15.4916 25.7386 20.4913 27.7016C24.6465 29.333 25.4921 29.0085 26.394 28.9268C27.2959 28.8452 29.3042 27.7424 29.7142 26.5988C30.1241 25.4554 30.1241 24.4754 30.0011 24.2705C29.8781 24.0664 29.5502 23.944 29.0582 23.6991C28.5663 23.4542 26.148 22.2693 25.6971 22.106C25.2461 21.9427 24.9181 21.8611 24.5902 22.3514C24.2622 22.8412 23.32 23.944 23.0331 24.2705C22.7461 24.5978 22.4591 24.6386 21.9672 24.3937C21.4752 24.148 19.891 23.6315 18.0116 21.9631C16.5493 20.6652 15.562 19.0621 15.275 18.5718C14.9881 18.082 15.2443 17.8167 15.491 17.5726C15.7119 17.3532 15.983 17.0009 16.229 16.7149C16.4744 16.429 16.5564 16.2249 16.7204 15.8984C16.8844 15.5713 16.8024 15.2854 16.6794 15.0405C16.5564 14.7956 15.6005 12.3737 15.1631 11.4054Z" fill="#1C1C1C"/>
<path id="Vector_2" d="M34.008 5.74977C30.2909 2.04651 25.3483 0.00598045 20.0824 0.00366211C9.23093 0.00366211 0.400095 8.79284 0.395733 19.596C0.394453 23.0493 1.30073 26.4202 3.02332 29.3916L0.230469 39.5445L10.6666 36.82C13.5419 38.3812 16.7793 39.2039 20.0739 39.2052H20.0823H20.0824C30.932 39.2052 39.7641 30.4145 39.7687 19.6118C39.7705 14.3762 37.7246 9.4533 34.008 5.74977ZM20.0824 35.8961H20.076C17.1394 35.8945 14.2596 35.1096 11.7478 33.6257L11.15 33.2729L4.95707 34.8894L6.61049 28.8801L6.22103 28.264C4.58298 25.671 3.71823 22.6743 3.71951 19.5973C3.72308 10.6181 11.0629 3.31307 20.0885 3.31307C24.4592 3.31487 28.5671 5.01101 31.6566 8.08904C34.7459 11.1671 36.446 15.2588 36.4447 19.6106C36.4409 28.59 29.1007 35.8961 20.0824 35.8961Z" fill="#1C1C1C"/>
</g>
<defs>
<clipPath id="clip0_216_906">
<rect width="40" height="40" fill="white"/>
</clipPath>
</defs>
</svg>
