<?xml version="1.0" encoding="utf-8"?>
<!-- Generator: Adobe Illustrator 27.5.0, SVG Export Plug-In . SVG Version: 6.00 Build 0)  -->
<svg version="1.1" xmlns="http://www.w3.org/2000/svg" xmlns:xlink="http://www.w3.org/1999/xlink" x="0px" y="0px"
	 viewBox="0 0 500 500" style="enable-background:new 0 0 500 500;" xml:space="preserve">
<g id="BACKGROUND">
	<rect style="fill:#FFFFFF;" width="500" height="500"/>
</g>
<g id="OBJECTS">
	<ellipse style="opacity:0.4;fill:#D4E2FF;" cx="250" cy="396.243" rx="187.33" ry="38.337"/>
	<g>
		<path style="opacity:0.5;fill:#D4E2FF;" d="M366.86,379.403c0,0,85.267-30.412,70.125-75.708
			c-15.146-45.294-34.394-45.858-27.587-80.069c6.806-34.209,32.965-100.672-29.776-108.09
			c-62.741-7.417-107.407-20.093-130.801-36.539c-23.393-16.446-72.313-21.745-89.327,21.703
			c-17.013,43.448-57.424,72.59-85.073,92.459c-27.649,19.869-13.824,47.42,0,78.684c13.825,31.262-39.347,76.828,12.761,107.559
			H366.86z"/>
		<path style="fill:#D4E2FF;" d="M130.385,379.403c0,0-85.267-30.412-70.124-75.708c15.144-45.294,34.392-45.858,27.586-80.069
			c-6.806-34.209-32.965-100.672,29.776-108.09c62.742-7.417,107.407-20.093,130.801-36.539
			c23.393-16.446,72.313-21.745,89.327,21.703c17.013,43.448,57.424,72.59,85.072,92.459c27.65,19.869,13.825,47.42,0,78.684
			c-13.825,31.262,39.347,76.828-12.76,107.559H130.385z"/>
	</g>
	<g>
		<g>
			<g>
				<path style="fill:#B3CEFF;" d="M56.131,177.098c2.79-12.997,42.507,15.845,51.195,22.335c-4.05-6.385-8.486-12.53-13.269-18.406
					c-8.393-5.202-46.832-29.957-37.534-41.417c11.514-14.192,30.875,24.393,37.119,37.907
					c13.945,16.653,25.08,35.483,32.597,55.904c-1.819-12.174-9.109-66.997,7.435-65.484c17.513,1.602-4.201,60.311-6.811,67.195
					c1.402,3.931,2.674,7.919,3.803,11.961c1.976,7.079,3.713,14.536,4.823,22.069c-0.228-15.682,0.259-65.133,15.625-61.748
					c17.063,3.759-11.354,58.585-15.111,65.679c0.042,0.35,0.086,0.698,0.125,1.047l0,0l0,0c0.597,5.556,0.806,11.115,0.467,16.56
					c-0.076,1.225-2.001,1.326-1.924,0.087c0.335-5.396,0.119-10.887-0.478-16.369c-14.534,1.374-58.048-7.218-52.791-23.943
					c4.819-15.331,42.977,14.181,52.55,21.89c-1.02-8.119-2.831-16.184-4.892-23.849c-0.737-2.748-1.55-5.467-2.423-8.163
					c-17.422,2.517-64.225-8.07-59.607-28.472c4.264-18.838,50.557,19.749,59.174,27.128c-4.422-13.308-10.44-25.984-17.791-37.85
					C96.073,210.106,53.046,191.463,56.131,177.098z"/>
				<path style="fill:#B3CEFF;" d="M101.274,140.132c19.808-1.989,7.617,58.242,7.617,58.242
					C101.532,185.704,81.464,142.122,101.274,140.132z"/>
			</g>
			<g>
				<path style="fill:#3361F2;" d="M49.332,237.655c2.791-12.998,42.507,15.844,51.195,22.334
					c-4.051-6.385-8.487-12.53-13.269-18.406c-8.393-5.204-46.832-29.957-37.533-41.417c11.513-14.192,30.875,24.393,37.119,37.907
					c13.945,16.653,25.08,35.483,32.598,55.904c-1.82-12.174-9.109-66.998,7.434-65.485c17.514,1.601-4.201,60.311-6.811,67.196
					c1.403,3.931,2.674,7.918,3.804,11.96c1.976,7.079,3.712,14.536,4.823,22.07c-0.228-15.682,0.259-65.135,15.626-61.748
					c17.063,3.76-11.354,58.585-15.111,65.679c0.042,0.351,0.085,0.698,0.124,1.048l0,0l0,0c0.597,5.555,0.807,11.114,0.467,16.559
					c-0.076,1.226-2.002,1.326-1.924,0.088c0.336-5.396,0.119-10.888-0.478-16.369c-14.534,1.373-58.048-7.218-52.79-23.943
					c4.819-15.333,42.976,14.181,52.55,21.89c-1.02-8.119-2.831-16.185-4.892-23.85c-0.737-2.747-1.55-5.466-2.423-8.163
					c-17.422,2.518-64.225-8.07-59.608-28.472c4.264-18.839,50.557,19.749,59.175,27.128c-4.422-13.308-10.44-25.984-17.791-37.851
					C89.274,270.662,46.247,252.019,49.332,237.655z"/>
				<path style="fill:#3361F2;" d="M94.475,200.689c19.808-1.99,7.618,58.242,7.618,58.242
					C94.733,246.261,74.665,202.677,94.475,200.689z"/>
			</g>
			<g>
				<path style="fill:#B3CEFF;" d="M122.754,380.927c0,0-0.021-25.357-6.537-41.18c-6.515-15.823-28.766-34.659-42.343-28.663
					c-13.576,5.995-12.041,24.361,4.9,31.09C95.714,348.903,117.755,366.842,122.754,380.927z"/>
				<path style="fill:#86B4F7;" d="M121.035,371.253c0,0-0.244-1.052-0.822-2.852c-0.583-1.796-1.489-4.346-2.821-7.307
					c-0.65-1.487-1.416-3.073-2.276-4.725c-0.873-1.643-1.802-3.379-2.886-5.102c-1.06-1.737-2.208-3.503-3.461-5.24
					c-1.267-1.725-2.589-3.456-3.998-5.119c-0.709-0.826-1.43-1.643-2.18-2.431c-0.73-0.803-1.494-1.57-2.256-2.325
					c-1.511-1.527-3.129-2.896-4.706-4.197c-1.584-1.295-3.199-2.442-4.766-3.47c-1.57-1.023-3.093-1.931-4.553-2.662
					c-1.424-0.795-2.822-1.349-4.022-1.893c-1.233-0.482-2.314-0.876-3.208-1.182c-1.817-0.54-2.853-0.821-2.853-0.821
					s0.967,0.492,2.654,1.302c0.823,0.443,1.822,0.982,2.969,1.601c1.106,0.686,2.386,1.39,3.702,2.289
					c0.665,0.438,1.364,0.879,2.047,1.399c0.685,0.517,1.433,0.984,2.139,1.561c1.445,1.103,2.912,2.335,4.404,3.635
					c1.484,1.311,2.945,2.742,4.404,4.222c0.728,0.741,1.458,1.494,2.153,2.283c0.717,0.77,1.401,1.576,2.082,2.385
					c1.39,1.593,2.699,3.256,3.957,4.919c1.226,1.686,2.466,3.324,3.561,4.989c1.111,1.65,2.158,3.268,3.126,4.819
					c0.94,1.567,1.847,3.045,2.633,4.438C119.226,367.333,121.035,371.253,121.035,371.253z"/>
			</g>
		</g>
		<g>
			<g>
				<path style="fill:#B3CEFF;" d="M443.869,177.098c-2.79-12.997-42.507,15.845-51.195,22.335
					c4.051-6.385,8.487-12.53,13.27-18.406c8.392-5.202,46.831-29.957,37.533-41.417c-11.514-14.192-30.875,24.393-37.119,37.907
					c-13.945,16.653-25.08,35.483-32.597,55.904c1.818-12.174,9.108-66.997-7.435-65.484c-17.513,1.602,4.201,60.311,6.811,67.195
					c-1.402,3.931-2.675,7.919-3.804,11.961c-1.976,7.079-3.713,14.536-4.823,22.069c0.228-15.682-0.259-65.133-15.625-61.748
					c-17.064,3.759,11.354,58.585,15.11,65.679c-0.04,0.35-0.084,0.698-0.124,1.047l0,0l0,0c-0.596,5.556-0.806,11.115-0.467,16.56
					c0.077,1.225,2.002,1.326,1.925,0.087c-0.336-5.396-0.119-10.887,0.477-16.369c14.535,1.374,58.048-7.218,52.791-23.943
					c-4.818-15.331-42.977,14.181-52.549,21.89c1.02-8.119,2.83-16.184,4.891-23.849c0.737-2.748,1.552-5.467,2.424-8.163
					c17.423,2.517,64.226-8.07,59.607-28.472c-4.263-18.838-50.557,19.749-59.174,27.128c4.421-13.308,10.439-25.984,17.791-37.85
					C403.927,210.106,446.954,191.463,443.869,177.098z"/>
				<path style="fill:#B3CEFF;" d="M398.726,140.132c-19.809-1.989-7.617,58.242-7.617,58.242
					C398.467,185.704,418.535,142.122,398.726,140.132z"/>
			</g>
			<g>
				<path style="fill:#3361F2;" d="M450.669,237.655c-2.791-12.998-42.509,15.844-51.195,22.334
					c4.05-6.385,8.485-12.53,13.268-18.406c8.395-5.204,46.832-29.957,37.534-41.417c-11.514-14.192-30.875,24.393-37.118,37.907
					c-13.945,16.653-25.082,35.483-32.599,55.904c1.821-12.174,9.109-66.998-7.434-65.485c-17.513,1.601,4.201,60.311,6.81,67.196
					c-1.401,3.931-2.674,7.918-3.803,11.96c-1.976,7.079-3.713,14.536-4.822,22.07c0.228-15.682-0.26-65.135-15.628-61.748
					c-17.061,3.76,11.354,58.585,15.113,65.679c-0.043,0.351-0.087,0.698-0.124,1.048l0,0l0,0
					c-0.598,5.555-0.809,11.114-0.468,16.559c0.075,1.226,2.002,1.326,1.924,0.088c-0.336-5.396-0.118-10.888,0.478-16.369
					c14.532,1.373,58.047-7.218,52.79-23.943c-4.819-15.333-42.977,14.181-52.55,21.89c1.02-8.119,2.832-16.185,4.892-23.85
					c0.737-2.747,1.55-5.466,2.424-8.163c17.421,2.518,64.225-8.07,59.607-28.472c-4.265-18.839-50.557,19.749-59.176,27.128
					c4.424-13.308,10.442-25.984,17.791-37.851C410.726,270.662,453.752,252.019,450.669,237.655z"/>
				<path style="fill:#3361F2;" d="M405.524,200.689c-19.808-1.99-7.618,58.242-7.618,58.242
					C405.267,246.261,425.335,202.677,405.524,200.689z"/>
			</g>
			<g>
				<path style="fill:#B3CEFF;" d="M377.246,380.927c0,0,0.021-25.357,6.536-41.18c6.516-15.823,28.767-34.659,42.343-28.663
					c13.577,5.995,12.042,24.361-4.899,31.09C404.286,348.903,382.244,366.842,377.246,380.927z"/>
				<path style="fill:#86B4F7;" d="M378.965,371.253c0,0,0.244-1.052,0.822-2.852c0.584-1.796,1.49-4.346,2.821-7.307
					c0.651-1.487,1.416-3.073,2.275-4.725c0.874-1.643,1.803-3.379,2.887-5.102c1.06-1.737,2.209-3.503,3.461-5.24
					c1.267-1.725,2.588-3.456,3.998-5.119c0.709-0.826,1.43-1.643,2.18-2.431c0.73-0.803,1.494-1.57,2.257-2.325
					c1.511-1.527,3.128-2.896,4.705-4.197c1.584-1.295,3.199-2.442,4.765-3.47c1.571-1.023,3.093-1.931,4.555-2.662
					c1.424-0.795,2.821-1.349,4.021-1.893c1.233-0.482,2.315-0.876,3.209-1.182c1.816-0.54,2.852-0.821,2.852-0.821
					s-0.967,0.492-2.653,1.302c-0.822,0.443-1.822,0.982-2.969,1.601c-1.107,0.686-2.385,1.39-3.701,2.289
					c-0.667,0.438-1.365,0.879-2.048,1.399c-0.684,0.517-1.434,0.984-2.139,1.561c-1.446,1.103-2.912,2.335-4.404,3.635
					c-1.484,1.311-2.946,2.742-4.403,4.222c-0.729,0.741-1.458,1.494-2.154,2.283c-0.718,0.77-1.4,1.576-2.081,2.385
					c-1.39,1.593-2.699,3.256-3.958,4.919c-1.226,1.686-2.466,3.324-3.561,4.989c-1.11,1.65-2.157,3.268-3.127,4.819
					c-0.94,1.567-1.846,3.045-2.633,4.438C380.773,367.333,378.965,371.253,378.965,371.253z"/>
			</g>
		</g>
	</g>
	<g>
		<g>
			<g>
				<g>
					<g>
						<rect x="117.762" y="102.823" style="fill:#3361F2;" width="261.723" height="64.46"/>
					</g>
					<g>
						<rect x="117.762" y="167.284" style="fill:#86B4F7;" width="261.723" height="212.702"/>
					</g>
				</g>
				<g>
					<g>
						<g>
							<rect x="125.368" y="178.313" style="fill:#FFFFFF;" width="31.808" height="31.808"/>
						</g>
						<g>
							<path style="fill:#B2C6F9;" d="M150.725,204.86c0.736,0.036,1.232,0.433,1.232,1.086c0,0.754-0.554,1.279-1.431,1.279
								c-0.472,0-0.957-0.169-1.295-0.414l0.205-0.393c0.291,0.241,0.678,0.386,1.056,0.386c0.637,0,1.011-0.345,1.011-0.842
								c0-0.514-0.379-0.777-1.015-0.777h-0.503v-0.296l1.197-1.326h-1.769v-0.445h2.354v0.315l-1.268,1.407L150.725,204.86z"/>
							<path style="fill:#B2C6F9;" d="M153.2,207.202v-3.644h-0.83v-0.443h1.289v4.087H153.2z"/>
						</g>
					</g>
					<g>
						<g>
							<rect x="161.15" y="178.313" style="fill:#FFFFFF;" width="31.809" height="31.808"/>
						</g>
						<g>
							<path style="fill:#7E9BF3;" d="M188.981,207.202v-3.644h-0.828v-0.443h1.29v4.087H188.981z"/>
						</g>
					</g>
					<g>
						<g>
							<rect x="196.935" y="178.313" style="fill:#FFFFFF;" width="31.808" height="31.808"/>
						</g>
						<g>
							<path style="fill:#7E9BF3;" d="M225.465,204.101c0,0.392-0.292,0.865-0.724,1.325l-1.256,1.333h2.214v0.443h-2.811v-0.385
								l1.532-1.664c0.345-0.345,0.561-0.726,0.561-0.988c0-0.396-0.305-0.636-0.819-0.636c-0.373,0-0.789,0.191-1.116,0.508
								l-0.204-0.374c0.398-0.357,0.893-0.567,1.38-0.567C224.976,203.096,225.465,203.488,225.465,204.101z"/>
						</g>
					</g>
					<g>
						<g>
							<rect x="232.718" y="178.313" style="fill:#FFFFFF;" width="31.808" height="31.808"/>
						</g>
						<g>
							<path style="fill:#7E9BF3;" d="M260.243,204.86c0.735,0.036,1.235,0.433,1.235,1.086c0,0.754-0.556,1.279-1.433,1.279
								c-0.474,0-0.957-0.169-1.3-0.414l0.206-0.393c0.293,0.241,0.678,0.386,1.058,0.386c0.637,0,1.01-0.345,1.01-0.842
								c0-0.514-0.378-0.777-1.015-0.777h-0.502v-0.296l1.198-1.326h-1.772v-0.445h2.354v0.315l-1.266,1.407L260.243,204.86z"/>
						</g>
					</g>
					<g>
						<g>
							<rect x="268.501" y="178.313" style="fill:#FFFFFF;" width="31.809" height="31.808"/>
						</g>
						<g>
							<path style="fill:#7E9BF3;" d="M296.342,205.678v-1.08h0.439v1.08h0.619v0.45h-0.619v1.074h-0.439v-1.074h-1.96v-0.385
								l1.466-2.628h0.461l-1.427,2.563H296.342z"/>
						</g>
					</g>
					<g>
						<g>
							<rect x="304.285" y="178.313" style="fill:#FFFFFF;" width="31.807" height="31.808"/>
						</g>
						<g>
							<path style="fill:#7E9BF3;" d="M330.97,203.565v1.149c0.211-0.034,0.504-0.058,0.69-0.058c0.856,0,1.407,0.51,1.407,1.21
								c0,0.817-0.566,1.349-1.443,1.349c-0.448,0-0.993-0.176-1.378-0.443l0.192-0.397c0.339,0.257,0.772,0.409,1.138,0.409
								c0.614,0,0.994-0.339,0.994-0.889c0-0.484-0.38-0.787-0.979-0.787c-0.271,0-0.761,0.04-1.054,0.099v-2.091h2.372v0.45H330.97
								z"/>
						</g>
					</g>
					<g>
						<g>
							<rect x="340.068" y="178.313" style="fill:#FFFFFF;" width="31.809" height="31.808"/>
						</g>
						<g>
							<path style="fill:#7E9BF3;" d="M368.758,203.389l-0.188,0.374c-0.267-0.158-0.625-0.251-0.939-0.251
								c-0.878,0-1.315,0.719-1.25,1.823c0.181-0.48,0.618-0.748,1.22-0.748c0.802,0,1.298,0.496,1.298,1.284
								c0,0.836-0.544,1.355-1.384,1.355c-0.994,0-1.596-0.719-1.596-1.98c0-1.296,0.642-2.15,1.682-2.15
								C367.974,203.096,368.425,203.214,368.758,203.389z M366.49,205.901c-0.005,0.391,0.3,0.893,0.995,0.893
								c0.577,0,0.973-0.35,0.973-0.928c0-0.543-0.361-0.883-0.94-0.883C366.87,204.983,366.485,205.415,366.49,205.901z"/>
						</g>
					</g>
				</g>
				<g>
					<g>
						<g>
							<rect x="125.368" y="214.096" style="fill:#FFFFFF;" width="31.808" height="31.808"/>
						</g>
						<g>
							<path style="fill:#7E9BF3;" d="M152.566,242.986h-0.496l1.682-3.639h-1.905v0.597h-0.42v-1.047h2.838v0.391L152.566,242.986z
								"/>
						</g>
					</g>
					<g>
						<g>
							<rect x="161.15" y="214.096" style="fill:#FFFFFF;" width="31.809" height="31.808"/>
						</g>
						<g>
							<path style="fill:#7E9BF3;" d="M189.729,239.909c0,0.42-0.252,0.729-0.667,0.893c0.532,0.158,0.858,0.525,0.858,1.039
								c0,0.732-0.578,1.169-1.502,1.169c-0.934,0-1.513-0.436-1.513-1.156c0-0.521,0.339-0.893,0.881-1.052
								c-0.425-0.17-0.683-0.484-0.683-0.905c0-0.637,0.508-1.017,1.309-1.017C189.226,238.88,189.729,239.266,189.729,239.909z
								 M187.351,241.801c0,0.514,0.397,0.813,1.068,0.813c0.661,0,1.062-0.298,1.062-0.813c0-0.484-0.396-0.777-1.066-0.777
								C187.748,241.024,187.351,241.317,187.351,241.801z M187.508,239.938c0,0.438,0.338,0.695,0.911,0.695
								c0.566,0,0.905-0.257,0.905-0.695c0-0.439-0.339-0.695-0.905-0.695C187.847,239.243,187.508,239.498,187.508,239.938z"/>
						</g>
					</g>
					<g>
						<g>
							<rect x="196.935" y="214.096" style="fill:#FFFFFF;" width="31.808" height="31.808"/>
						</g>
						<g>
							<path style="fill:#7E9BF3;" d="M222.9,242.712l0.188-0.373c0.269,0.157,0.624,0.25,0.941,0.25
								c0.876,0,1.314-0.72,1.249-1.823c-0.182,0.479-0.618,0.747-1.221,0.747c-0.799,0-1.297-0.496-1.297-1.285
								c0-0.834,0.543-1.355,1.385-1.355c0.992,0,1.594,0.719,1.594,1.976c0,1.302-0.644,2.155-1.682,2.155
								C223.683,243.004,223.234,242.888,222.9,242.712z M225.174,240.2c0-0.392-0.298-0.894-0.999-0.894
								c-0.577,0-0.975,0.345-0.975,0.929c0,0.543,0.361,0.881,0.94,0.881C224.787,241.117,225.174,240.686,225.174,240.2z"/>
						</g>
					</g>
					<g>
						<g>
							<rect x="232.718" y="214.096" style="fill:#FFFFFF;" width="31.808" height="31.808"/>
						</g>
						<g>
							<path style="fill:#7E9BF3;" d="M256.548,242.986v-3.645h-0.829v-0.444h1.292v4.089H256.548z"/>
							<path style="fill:#7E9BF3;" d="M261.477,240.941c0,1.321-0.602,2.057-1.689,2.057c-1.089,0-1.689-0.736-1.689-2.057
								c0-1.32,0.6-2.056,1.689-2.056C260.875,238.886,261.477,239.622,261.477,240.941z M258.572,240.941
								c0,1.104,0.423,1.661,1.216,1.661c0.794,0,1.215-0.557,1.215-1.661c0-1.109-0.421-1.659-1.215-1.659
								C258.995,239.283,258.572,239.832,258.572,240.941z"/>
						</g>
					</g>
					<g>
						<g>
							<rect x="268.501" y="214.096" style="fill:#FFFFFF;" width="31.809" height="31.808"/>
						</g>
						<g>
							<path style="fill:#7E9BF3;" d="M294.163,242.986v-3.645h-0.829v-0.444h1.291v4.089H294.163z"/>
							<path style="fill:#7E9BF3;" d="M296.335,242.986v-3.645h-0.831v-0.444h1.291v4.089H296.335z"/>
						</g>
					</g>
					<g>
						<g>
							<rect x="304.285" y="214.096" style="fill:#FFFFFF;" width="31.807" height="31.808"/>
						</g>
						<g>
							<path style="fill:#7E9BF3;" d="M328.717,242.986v-3.645h-0.826v-0.444h1.289v4.089H328.717z"/>
							<path style="fill:#7E9BF3;" d="M332.816,239.885c0,0.391-0.292,0.865-0.725,1.326l-1.257,1.333h2.214v0.443h-2.808v-0.384
								l1.528-1.666c0.347-0.345,0.563-0.725,0.563-0.987c0-0.397-0.305-0.637-0.819-0.637c-0.374,0-0.788,0.192-1.115,0.508
								l-0.204-0.374c0.396-0.356,0.893-0.567,1.379-0.567C332.323,238.88,332.816,239.271,332.816,239.885z"/>
						</g>
					</g>
					<g>
						<g>
							<rect x="340.068" y="214.096" style="fill:#FFFFFF;" width="31.809" height="31.808"/>
						</g>
						<g>
							<path style="fill:#7E9BF3;" d="M364.817,242.986v-3.645h-0.828v-0.444h1.29v4.089H364.817z"/>
							<path style="fill:#7E9BF3;" d="M367.596,240.644c0.735,0.035,1.232,0.433,1.232,1.087c0,0.754-0.555,1.279-1.432,1.279
								c-0.472,0-0.957-0.169-1.296-0.414l0.203-0.392c0.292,0.24,0.678,0.386,1.059,0.386c0.636,0,1.01-0.345,1.01-0.842
								c0-0.513-0.38-0.776-1.017-0.776h-0.503v-0.298l1.197-1.327h-1.769v-0.444h2.355v0.316l-1.27,1.409L367.596,240.644z"/>
						</g>
					</g>
				</g>
				<g>
					<g>
						<g>
							<rect x="125.368" y="249.878" style="fill:#FFFFFF;" width="31.808" height="31.809"/>
						</g>
						<g>
							<path style="fill:#7E9BF3;" d="M149.825,278.77v-3.643h-0.83v-0.442h1.29v4.086H149.825z"/>
							<path style="fill:#7E9BF3;" d="M153.209,277.247v-1.08h0.439v1.08h0.618v0.448h-0.618v1.074h-0.439v-1.074h-1.962v-0.386
								l1.465-2.626h0.462l-1.426,2.564H153.209z"/>
						</g>
					</g>
					<g>
						<g>
							<rect x="161.15" y="249.878" style="fill:#FFFFFF;" width="31.809" height="31.809"/>
						</g>
						<g>
							<path style="fill:#7E9BF3;" d="M185.679,278.77v-3.643h-0.83v-0.442h1.291v4.086H185.679z"/>
							<path style="fill:#7E9BF3;" d="M187.836,275.132v1.15c0.211-0.036,0.503-0.06,0.689-0.06c0.859,0,1.408,0.509,1.408,1.209
								c0,0.817-0.566,1.35-1.442,1.35c-0.452,0-0.994-0.176-1.38-0.443l0.194-0.397c0.338,0.257,0.77,0.408,1.138,0.408
								c0.613,0,0.993-0.338,0.993-0.886c0-0.485-0.379-0.791-0.981-0.791c-0.268,0-0.759,0.042-1.05,0.1v-2.088h2.37v0.448H187.836
								z"/>
						</g>
					</g>
					<g>
						<g>
							<rect x="196.935" y="249.878" style="fill:#FFFFFF;" width="31.808" height="31.809"/>
						</g>
						<g>
							<path style="fill:#7E9BF3;" d="M221.234,278.77v-3.643h-0.829v-0.442h1.29v4.086H221.234z"/>
							<path style="fill:#7E9BF3;" d="M225.624,274.957l-0.188,0.373c-0.27-0.157-0.625-0.253-0.941-0.253
								c-0.876,0-1.314,0.721-1.249,1.823c0.18-0.477,0.618-0.749,1.221-0.749c0.8,0,1.295,0.499,1.295,1.289
								c0,0.832-0.542,1.353-1.384,1.353c-0.992,0-1.595-0.718-1.595-1.979c0-1.297,0.644-2.148,1.684-2.148
								C224.841,274.665,225.29,274.78,225.624,274.957z M223.357,277.468c-0.006,0.391,0.297,0.893,0.992,0.893
								c0.579,0,0.976-0.351,0.976-0.93c0-0.541-0.362-0.882-0.939-0.882C223.735,276.55,223.351,276.981,223.357,277.468z"/>
						</g>
					</g>
					<g>
						<g>
							<rect x="232.718" y="249.878" style="fill:#FFFFFF;" width="31.808" height="31.809"/>
						</g>
						<g>
							<path style="fill:#7E9BF3;" d="M257.31,278.77v-3.643h-0.831v-0.442h1.291v4.086H257.31z"/>
							<path style="fill:#7E9BF3;" d="M259.917,278.77h-0.494l1.679-3.638h-1.903v0.596h-0.419v-1.044h2.838v0.39L259.917,278.77z"
								/>
						</g>
					</g>
					<g>
						<g>
							<rect x="268.501" y="249.878" style="fill:#FFFFFF;" width="31.809" height="31.809"/>
						</g>
						<g>
							<path style="fill:#7E9BF3;" d="M292.725,278.77v-3.643h-0.83v-0.442h1.291v4.086H292.725z"/>
							<path style="fill:#7E9BF3;" d="M297.079,275.691c0,0.423-0.253,0.732-0.666,0.895c0.531,0.157,0.86,0.525,0.86,1.038
								c0,0.732-0.579,1.169-1.503,1.169c-0.936,0-1.514-0.437-1.514-1.154c0-0.52,0.339-0.896,0.883-1.053
								c-0.427-0.17-0.682-0.485-0.682-0.906c0-0.635,0.508-1.015,1.306-1.015C296.576,274.665,297.079,275.051,297.079,275.691z
								 M294.703,277.586c0,0.512,0.397,0.809,1.067,0.809c0.659,0,1.062-0.297,1.062-0.809c0-0.486-0.396-0.779-1.068-0.779
								C295.101,276.807,294.703,277.1,294.703,277.586z M294.858,275.721c0,0.439,0.341,0.695,0.912,0.695
								c0.567,0,0.906-0.256,0.906-0.695c0-0.438-0.339-0.695-0.906-0.695C295.199,275.025,294.858,275.283,294.858,275.721z"/>
						</g>
					</g>
					<g>
						<g>
							<rect x="304.285" y="249.878" style="fill:#FFFFFF;" width="31.807" height="31.809"/>
						</g>
						<g>
							<path style="fill:#7E9BF3;" d="M328.584,278.77v-3.643h-0.829v-0.442h1.291v4.086H328.584z"/>
							<path style="fill:#7E9BF3;" d="M330.251,278.497l0.187-0.375c0.268,0.156,0.625,0.25,0.94,0.25
								c0.875,0,1.314-0.716,1.249-1.822c-0.181,0.482-0.62,0.748-1.221,0.748c-0.8,0-1.296-0.495-1.296-1.285
								c0-0.836,0.543-1.355,1.385-1.355c0.99,0,1.592,0.718,1.592,1.974c0,1.303-0.641,2.157-1.681,2.157
								C331.032,278.788,330.583,278.67,330.251,278.497z M332.524,275.984c0-0.392-0.3-0.893-1.001-0.893
								c-0.579,0-0.975,0.343-0.975,0.928c0,0.542,0.362,0.881,0.94,0.881C332.14,276.9,332.524,276.468,332.524,275.984z"/>
						</g>
					</g>
					<g>
						<g>
							<rect x="340.068" y="249.878" style="fill:#FFFFFF;" width="31.809" height="31.809"/>
						</g>
						<g>
							<path style="fill:#7E9BF3;" d="M364.6,275.668c0,0.392-0.292,0.863-0.725,1.325l-1.257,1.333h2.214v0.443h-2.809v-0.384
								l1.531-1.665c0.344-0.346,0.559-0.725,0.559-0.988c0-0.395-0.302-0.637-0.817-0.637c-0.373,0-0.787,0.193-1.116,0.509
								l-0.202-0.374c0.396-0.354,0.895-0.565,1.378-0.565C364.108,274.665,364.6,275.055,364.6,275.668z"/>
							<path style="fill:#7E9BF3;" d="M368.825,276.725c0,1.32-0.6,2.057-1.688,2.057c-1.085,0-1.688-0.736-1.688-2.057
								c0-1.319,0.603-2.056,1.688-2.056C368.226,274.669,368.825,275.405,368.825,276.725z M365.924,276.725
								c0,1.104,0.42,1.661,1.214,1.661c0.795,0,1.216-0.557,1.216-1.661c0-1.108-0.421-1.657-1.216-1.657
								C366.344,275.067,365.924,275.616,365.924,276.725z"/>
						</g>
					</g>
				</g>
				<g>
					<g>
						<g>
							<rect x="125.368" y="285.662" style="fill:#FFFFFF;" width="31.808" height="31.811"/>
						</g>
						<g>
							<path style="fill:#7E9BF3;" d="M151.729,311.453c0,0.391-0.292,0.865-0.724,1.323l-1.257,1.334h2.215v0.443h-2.81v-0.384
								l1.531-1.665c0.344-0.349,0.561-0.726,0.561-0.989c0-0.395-0.305-0.637-0.817-0.637c-0.374,0-0.79,0.194-1.117,0.508
								l-0.205-0.373c0.397-0.357,0.894-0.567,1.38-0.567C151.239,310.446,151.729,310.839,151.729,311.453z"/>
							<path style="fill:#7E9BF3;" d="M153.199,314.554v-3.644h-0.83v-0.446h1.29v4.09H153.199z"/>
						</g>
					</g>
					<g>
						<g>
							<rect x="161.15" y="285.662" style="fill:#FFFFFF;" width="31.809" height="31.811"/>
						</g>
						<g>
							<path style="fill:#7E9BF3;" d="M186.283,311.453c0,0.391-0.29,0.865-0.724,1.323l-1.254,1.334h2.213v0.443h-2.81v-0.384
								l1.53-1.665c0.344-0.349,0.561-0.726,0.561-0.989c0-0.395-0.304-0.637-0.818-0.637c-0.375,0-0.788,0.194-1.115,0.508
								l-0.205-0.373c0.397-0.357,0.894-0.567,1.379-0.567C185.794,310.446,186.283,310.839,186.283,311.453z"/>
							<path style="fill:#7E9BF3;" d="M189.681,311.453c0,0.391-0.292,0.865-0.724,1.323l-1.255,1.334h2.214v0.443h-2.81v-0.384
								l1.531-1.665c0.345-0.349,0.561-0.726,0.561-0.989c0-0.395-0.303-0.637-0.818-0.637c-0.373,0-0.788,0.194-1.115,0.508
								l-0.204-0.373c0.397-0.357,0.894-0.567,1.378-0.567C189.191,310.446,189.681,310.839,189.681,311.453z"/>
						</g>
					</g>
					<g>
						<g>
							<rect x="196.935" y="285.662" style="fill:#FFFFFF;" width="31.808" height="31.811"/>
						</g>
						<g>
							<path style="fill:#7E9BF3;" d="M222.384,311.453c0,0.391-0.292,0.865-0.725,1.323l-1.256,1.334h2.214v0.443h-2.808v-0.384
								l1.53-1.665c0.345-0.349,0.561-0.726,0.561-0.989c0-0.395-0.303-0.637-0.817-0.637c-0.376,0-0.788,0.194-1.116,0.508
								l-0.204-0.373c0.396-0.357,0.894-0.567,1.378-0.567C221.893,310.446,222.384,310.839,222.384,311.453z"/>
							<path style="fill:#7E9BF3;" d="M224.46,312.211c0.736,0.037,1.233,0.435,1.233,1.087c0,0.754-0.557,1.279-1.431,1.279
								c-0.472,0-0.958-0.169-1.297-0.415l0.205-0.391c0.292,0.239,0.677,0.387,1.058,0.387c0.636,0,1.008-0.345,1.008-0.843
								c0-0.514-0.379-0.777-1.014-0.777h-0.503v-0.297l1.197-1.325h-1.769v-0.445h2.353v0.316l-1.267,1.408L224.46,312.211z"/>
						</g>
					</g>
					<g>
						<g>
							<rect x="232.718" y="285.662" style="fill:#FFFFFF;" width="31.808" height="31.811"/>
						</g>
						<g>
							<path style="fill:#7E9BF3;" d="M257.874,311.453c0,0.391-0.29,0.865-0.724,1.323l-1.255,1.334h2.212v0.443H255.3v-0.384
								l1.529-1.665c0.346-0.349,0.56-0.726,0.56-0.989c0-0.395-0.304-0.637-0.816-0.637c-0.375,0-0.791,0.194-1.116,0.508
								l-0.204-0.373c0.397-0.357,0.893-0.567,1.379-0.567C257.385,310.446,257.874,310.839,257.874,311.453z"/>
							<path style="fill:#7E9BF3;" d="M260.559,313.029v-1.08h0.439v1.08h0.619v0.45h-0.619v1.074h-0.439v-1.074h-1.96v-0.388
								l1.464-2.628h0.462l-1.425,2.565H260.559z"/>
						</g>
					</g>
					<g>
						<g>
							<rect x="268.501" y="285.662" style="fill:#FFFFFF;" width="31.809" height="31.811"/>
						</g>
						<g>
							<path style="fill:#7E9BF3;" d="M293.727,311.453c0,0.391-0.292,0.865-0.722,1.323l-1.257,1.334h2.212v0.443h-2.809v-0.384
								l1.531-1.665c0.344-0.349,0.56-0.726,0.56-0.989c0-0.395-0.306-0.637-0.817-0.637c-0.375,0-0.791,0.194-1.119,0.508
								l-0.201-0.373c0.397-0.357,0.892-0.567,1.378-0.567C293.238,310.446,293.727,310.839,293.727,311.453z"/>
							<path style="fill:#7E9BF3;" d="M295.186,310.916v1.149c0.212-0.036,0.502-0.059,0.691-0.059c0.856,0,1.406,0.509,1.406,1.208
								c0,0.818-0.565,1.35-1.442,1.35c-0.45,0-0.993-0.175-1.378-0.442l0.192-0.399c0.337,0.258,0.77,0.409,1.14,0.409
								c0.612,0,0.99-0.338,0.99-0.888c0-0.484-0.378-0.788-0.979-0.788c-0.27,0-0.762,0.04-1.053,0.1v-2.093h2.372v0.452H295.186z"
								/>
						</g>
					</g>
					<g>
						<g>
							<rect x="304.285" y="285.662" style="fill:#FFFFFF;" width="31.807" height="31.811"/>
						</g>
						<g>
							<path style="fill:#7E9BF3;" d="M329.284,311.453c0,0.391-0.293,0.865-0.725,1.323l-1.257,1.334h2.214v0.443h-2.808v-0.384
								l1.529-1.665c0.344-0.349,0.56-0.726,0.56-0.989c0-0.395-0.303-0.637-0.817-0.637c-0.372,0-0.788,0.194-1.117,0.508
								l-0.202-0.373c0.396-0.357,0.895-0.567,1.379-0.567C328.792,310.446,329.284,310.839,329.284,311.453z"/>
							<path style="fill:#7E9BF3;" d="M332.973,310.739l-0.185,0.374c-0.271-0.158-0.626-0.249-0.943-0.249
								c-0.877,0-1.313,0.716-1.248,1.819c0.179-0.479,0.618-0.747,1.22-0.747c0.802,0,1.298,0.497,1.298,1.286
								c0,0.836-0.544,1.354-1.386,1.354c-0.992,0-1.594-0.719-1.594-1.979c0-1.298,0.641-2.151,1.682-2.151
								C332.19,310.446,332.642,310.565,332.973,310.739z M330.706,313.251c-0.004,0.392,0.298,0.893,0.993,0.893
								c0.579,0,0.976-0.349,0.976-0.929c0-0.54-0.361-0.881-0.939-0.881C331.087,312.334,330.702,312.766,330.706,313.251z"/>
						</g>
					</g>
					<g>
						<g>
							<rect x="340.068" y="285.662" style="fill:#FFFFFF;" width="31.809" height="31.811"/>
						</g>
						<g>
							<path style="fill:#7E9BF3;" d="M365.357,311.453c0,0.391-0.29,0.865-0.722,1.323l-1.257,1.334h2.214v0.443h-2.81v-0.384
								l1.532-1.665c0.343-0.349,0.559-0.726,0.559-0.989c0-0.395-0.303-0.637-0.817-0.637c-0.373,0-0.786,0.194-1.115,0.508
								l-0.204-0.373c0.396-0.357,0.895-0.567,1.379-0.567C364.869,310.446,365.357,310.839,365.357,311.453z"/>
							<path style="fill:#7E9BF3;" d="M367.267,314.554h-0.495l1.683-3.638h-1.905v0.594h-0.421v-1.046h2.838v0.391L367.267,314.554
								z"/>
						</g>
					</g>
				</g>
				<g>
					<g>
						<g>
							<rect x="125.368" y="321.446" style="fill:#FFFFFF;" width="31.808" height="31.808"/>
						</g>
						<g>
							<path style="fill:#7E9BF3;" d="M150.29,347.235c0,0.393-0.292,0.866-0.725,1.328l-1.255,1.33h2.214v0.444h-2.81v-0.388
								l1.53-1.662c0.346-0.345,0.561-0.725,0.561-0.988c0-0.397-0.303-0.639-0.819-0.639c-0.372,0-0.787,0.193-1.114,0.511
								l-0.204-0.374c0.397-0.358,0.894-0.568,1.378-0.568C149.799,346.229,150.29,346.622,150.29,347.235z"/>
							<path style="fill:#7E9BF3;" d="M153.945,347.261c0,0.417-0.252,0.727-0.667,0.891c0.532,0.159,0.859,0.526,0.859,1.043
								c0,0.728-0.578,1.168-1.502,1.168c-0.934,0-1.511-0.44-1.511-1.159c0-0.518,0.337-0.893,0.88-1.052
								c-0.426-0.168-0.683-0.482-0.683-0.904c0-0.636,0.508-1.018,1.309-1.018C153.441,346.229,153.945,346.617,153.945,347.261z
								 M151.568,349.151c0,0.516,0.397,0.813,1.067,0.813c0.661,0,1.064-0.297,1.064-0.813c0-0.483-0.398-0.775-1.069-0.775
								C151.965,348.376,151.568,348.668,151.568,349.151z M151.726,347.288c0,0.438,0.338,0.695,0.91,0.695
								c0.567,0,0.906-0.258,0.906-0.695s-0.338-0.695-0.906-0.695C152.064,346.593,151.726,346.851,151.726,347.288z"/>
						</g>
					</g>
					<g>
						<g>
							<rect x="161.15" y="321.446" style="fill:#FFFFFF;" width="31.809" height="31.808"/>
						</g>
						<g>
							<path style="fill:#7E9BF3;" d="M186.149,347.235c0,0.393-0.29,0.866-0.724,1.328l-1.255,1.33h2.213v0.444h-2.808v-0.388
								l1.528-1.662c0.345-0.345,0.561-0.725,0.561-0.988c0-0.397-0.303-0.639-0.818-0.639c-0.374,0-0.788,0.193-1.115,0.511
								l-0.205-0.374c0.397-0.358,0.893-0.568,1.379-0.568C185.659,346.229,186.149,346.622,186.149,347.235z"/>
							<path style="fill:#7E9BF3;" d="M187.117,350.061l0.188-0.372c0.269,0.156,0.624,0.252,0.94,0.252
								c0.875,0,1.314-0.721,1.249-1.824c-0.181,0.48-0.619,0.747-1.221,0.747c-0.8,0-1.296-0.496-1.296-1.283
								c0-0.836,0.543-1.356,1.383-1.356c0.994,0,1.595,0.722,1.595,1.977c0,1.302-0.642,2.154-1.682,2.154
								C187.9,350.355,187.45,350.237,187.117,350.061z M189.39,347.551c0-0.39-0.298-0.894-0.999-0.894
								c-0.579,0-0.976,0.345-0.976,0.929c0,0.543,0.362,0.884,0.941,0.884C189.005,348.47,189.39,348.034,189.39,347.551z"/>
						</g>
					</g>
					<g>
						<g>
							<rect x="196.935" y="321.446" style="fill:#FFFFFF;" width="31.808" height="31.808"/>
						</g>
						<g>
							<path style="fill:#7E9BF3;" d="M220.46,347.994c0.736,0.036,1.233,0.433,1.233,1.087c0,0.754-0.555,1.281-1.43,1.281
								c-0.474,0-0.96-0.171-1.298-0.416l0.205-0.391c0.292,0.238,0.677,0.386,1.057,0.386c0.637,0,1.012-0.345,1.012-0.843
								c0-0.514-0.382-0.777-1.018-0.777h-0.502v-0.297l1.198-1.325h-1.77v-0.444h2.354v0.315l-1.269,1.408L220.46,347.994z"/>
							<path style="fill:#7E9BF3;" d="M225.693,348.292c0,1.323-0.604,2.055-1.687,2.055c-1.087,0-1.688-0.732-1.688-2.055
								c0-1.319,0.601-2.054,1.688-2.054C225.089,346.238,225.693,346.973,225.693,348.292z M222.79,348.292
								c0,1.105,0.42,1.658,1.216,1.658c0.792,0,1.213-0.553,1.213-1.658c0-1.107-0.421-1.658-1.213-1.658
								C223.21,346.634,222.79,347.185,222.79,348.292z"/>
						</g>
					</g>
				</g>
			</g>
			<g>
				<path style="fill:#FFFFFF;" d="M134.715,113.14c0,2.582-2.094,4.674-4.674,4.674c-2.58,0-4.673-2.092-4.673-4.674
					c0-2.581,2.093-4.673,4.673-4.673C132.621,108.467,134.715,110.559,134.715,113.14z"/>
				<path style="fill:#FFFFFF;" d="M150.293,113.14c0,2.582-2.092,4.674-4.672,4.674c-2.582,0-4.675-2.092-4.675-4.674
					c0-2.581,2.093-4.673,4.675-4.673C148.201,108.467,150.293,110.559,150.293,113.14z"/>
				<path style="fill:#FFFFFF;" d="M165.872,113.14c0,2.582-2.092,4.674-4.673,4.674c-2.581,0-4.673-2.092-4.673-4.674
					c0-2.581,2.092-4.673,4.673-4.673C163.779,108.467,165.872,110.559,165.872,113.14z"/>
			</g>
		</g>
		<g>
			<path style="opacity:0.5;fill:#A5BDF9;" d="M311.68,139.972c0,5.928-4.804,10.732-10.73,10.732H196.295
				c-5.928,0-10.733-4.804-10.733-10.732l0,0c0-5.927,4.805-10.732,10.733-10.732h104.654
				C306.876,129.24,311.68,134.045,311.68,139.972L311.68,139.972z"/>
			<rect x="204.414" y="136.747" style="fill:#FFFFFF;" width="88.416" height="6.45"/>
		</g>
	</g>
	<g>
		<g>
			<path style="fill:#FFCA8B;" d="M212.901,223.355c0,2.731-2.214,4.945-4.945,4.945h-68.479c-2.731,0-4.945-2.214-4.945-4.945l0,0
				c0-2.732,2.214-4.945,4.945-4.945h68.479C210.687,218.41,212.901,220.624,212.901,223.355L212.901,223.355z"/>
			<g>
				<rect x="143.417" y="220.453" style="fill:#FE5D58;" width="60.599" height="1.599"/>
				<rect x="143.417" y="223.94" style="fill:#FE5D58;" width="48.828" height="1.599"/>
			</g>
		</g>
		<g>
			<path style="fill:#FFCA8B;" d="M360.245,297.485c0,2.731-2.214,4.945-4.945,4.945h-68.478c-2.732,0-4.945-2.214-4.945-4.945l0,0
				c0-2.73,2.214-4.944,4.945-4.944H355.3C358.031,292.541,360.245,294.755,360.245,297.485L360.245,297.485z"/>
			<g>
				<rect x="290.762" y="294.583" style="fill:#FE5D58;" width="60.599" height="1.6"/>
				<rect x="290.762" y="298.071" style="fill:#FE5D58;" width="48.827" height="1.599"/>
			</g>
		</g>
	</g>
	<g>
		<g>
			<polygon style="opacity:0.4;fill:#9F77ED;" points="394.329,196.832 277.901,196.832 277.901,226.557 277.901,232.615 
				277.901,241.49 284.164,232.615 394.329,232.615 			"/>
			<polygon style="fill:#9F77ED;" points="389.969,192.473 273.542,192.473 273.542,222.197 273.542,228.256 273.542,237.13 
				279.805,228.256 389.969,228.256 			"/>
			<g>
				<g>
					<path style="fill:#FFFFFF;" d="M306.789,210.007c0,7.295-5.914,13.209-13.208,13.209c-7.295,0-13.211-5.914-13.211-13.209
						c0-7.296,5.916-13.208,13.211-13.208C300.875,196.799,306.789,202.711,306.789,210.007z"/>
					<polygon style="fill:#FFCA8B;" points="300.239,207.824 295.764,207.824 295.764,203.348 291.396,203.348 291.396,207.824 
						286.923,207.824 286.923,212.189 291.396,212.189 291.396,216.667 295.764,216.667 295.764,212.189 300.239,212.189 					"/>
				</g>
				<g>
					<rect x="310.483" y="198.932" style="fill:#FFFFFF;" width="73.093" height="2.097"/>
					<rect x="310.483" y="205.907" style="fill:#FFFFFF;" width="73.093" height="2.097"/>
					<rect x="310.483" y="212.882" style="fill:#FFFFFF;" width="73.093" height="2.097"/>
					<rect x="310.483" y="218.986" style="fill:#FFFFFF;" width="49.101" height="2.097"/>
				</g>
			</g>
		</g>
		<g>
			<polygon style="opacity:0.4;fill:#9F77ED;" points="102.903,260.824 193.172,260.824 193.172,290.547 193.172,296.606 
				193.172,305.481 186.91,296.606 102.903,296.606 			"/>
			<polygon style="fill:#9F77ED;" points="98.543,256.464 188.813,256.464 188.813,286.188 188.813,292.247 188.813,301.121 
				182.55,292.247 98.543,292.247 			"/>
			<g>
				<g>
					<path style="fill:#FFFFFF;" d="M131.608,273.399c0,7.296-5.914,13.209-13.208,13.209c-7.294,0-13.21-5.913-13.21-13.209
						c0-7.296,5.916-13.208,13.21-13.208C125.694,260.191,131.608,266.103,131.608,273.399z"/>
					<path style="fill:#FFCA8B;" d="M124.644,273.182c-1.718,0-3.437,0-5.155,0c0-3.05,0-5.228,0-8.278c0-1.405-2.18-1.405-2.18,0
						c0,3.414,0,5.955,0,9.369c0,0.594,0.496,1.09,1.09,1.09c2.082,0,4.164,0,6.245,0
						C126.049,275.362,126.049,273.182,124.644,273.182z"/>
				</g>
				<g>
					<rect x="136.936" y="262.501" style="fill:#FFFFFF;" width="15.199" height="2.098"/>
					<rect x="136.936" y="269.477" style="fill:#FFFFFF;" width="44.9" height="2.098"/>
					<rect x="136.936" y="276.451" style="fill:#FFFFFF;" width="44.9" height="2.098"/>
					<rect x="136.936" y="282.555" style="fill:#FFFFFF;" width="30.162" height="2.098"/>
				</g>
			</g>
		</g>
	</g>
	<g>
		<g>
			<path style="fill:#FFB89F;" d="M381.502,291.48c-0.163-4.972-2.018-25.716-2.018-25.716l-7.082,3.595l2.283,21.502l1.526,27.901
				c0,0-1.963,4.869-1.454,5.232c0.508,0.363,1.38-2.244,1.743-2.067c0.363,0.177,0.363,3.737-0.363,5.191
				c-0.727,1.453,2.308,2.034,2.827,0.653c0.52-1.38,0.52-6.83,0.52-6.83S381.664,296.452,381.502,291.48z"/>
			<path style="fill:#FFB89F;" d="M308.041,247.725c-2.718-2.827-9.762-18.021-11.571-21.977l0.049-0.028c0,0-1.602-2.94-1.53-3.613
				c0.071-0.672,1.772-5.143,1.338-5.479c-0.434-0.335-1.63,1.924-2.112,1.829c-0.48-0.096-2.288-5.138-3.058-5.041
				c-0.768,0.097,0.619,4.119,0.536,4.54c-0.084,0.421-3.459,0.75-3.972,2.708c-0.514,1.959,2.961,4.584,2.961,4.584l0.792,2.066
				c0.037,0.121,7.24,22.891,10.816,26.772c3.586,3.891,27.821,10.26,27.821,10.26l-0.513-9.319
				C329.599,255.026,311.17,250.98,308.041,247.725z"/>
			<g>
				<g>
					<g>
						
							<rect x="334.148" y="402.804" transform="matrix(0.0072 -1 1 0.0072 -67.5296 745.3024)" style="fill:#FECE9A;" width="14.877" height="7.714"/>
						<g>
							<path style="fill:#3361F2;" d="M345.408,411.013l-7.71-0.063c0,0-9.663,4.303-10.874,6.773l-0.011,1.101l19.087,0.179
								C345.9,419.003,347.042,413.501,345.408,411.013z"/>
						</g>
					</g>
				</g>
				<g>
					<g>
						
							<rect x="360.147" y="399.222" transform="matrix(1 -0.0072 0.0072 1 -2.9269 2.6389)" style="fill:#FECE9A;" width="7.714" height="14.877"/>
						<g>
							<path style="fill:#3361F2;" d="M360.182,411.013l7.711-0.063c0,0,9.666,4.303,10.877,6.773l0.007,1.101l-19.084,0.179
								C359.692,419.003,358.547,413.501,360.182,411.013z"/>
						</g>
					</g>
				</g>
				<path style="fill:#9F77ED;" d="M336.151,296.387c0,0-5.244,79.582-2.644,116.002h14.031c0,0,1.192-85.517,5.382-85.517
					c4.185,0,4.681,85.517,4.681,85.517h15.158c0,0-2.068-96.711-2.963-116.002H336.151z"/>
				<g>
					<g>
						<path style="fill:#FFB89F;" d="M366.31,227.403c0.099,10.258-6.225,18.63-14.115,18.708
							c-7.896,0.074-14.373-8.177-14.473-18.435c-0.1-10.256,6.221-18.632,14.117-18.707
							C359.727,208.893,366.214,217.145,366.31,227.403z"/>
						<path style="fill:#FFB89F;" d="M348.739,242.081c0,0-2.198,6.313-6.695,9.042c0,0,10.827,9.831,20.171-0.318
							c0,0-5.941-4.695-6.265-8.791L348.739,242.081z"/>
					</g>
					<path style="fill:#3361F2;" d="M345.843,247.11c0.809,1.597,11.282,1.597,12.347-0.12l12.937,4.262l4.021,57.041l-42.815,0.409
						l1.178-56.367L345.843,247.11z"/>
					<path style="fill:#3361F2;" d="M337.469,251.252l-4.269,18.905l-9.74-5.454l1.089-13.451
						C324.549,251.252,332.358,250.169,337.469,251.252z"/>
					<g>
						<path style="fill:#FFB89F;" d="M339.378,229.279c0.013,1.457-0.832,2.647-1.885,2.657c-1.054,0.01-1.919-1.164-1.935-2.622
							c-0.013-1.458,0.83-2.646,1.885-2.656C338.496,226.648,339.364,227.821,339.378,229.279z"/>
						<path style="fill:#FFB89F;" d="M367.547,229.009c0.014,1.457-0.827,2.647-1.881,2.658c-1.053,0.008-1.919-1.166-1.933-2.622
							c-0.015-1.459,0.83-2.648,1.882-2.659C366.669,226.377,367.532,227.551,367.547,229.009z"/>
					</g>
					<path style="fill:#BF5B4B;" d="M360.398,210.724c0,0-2.631-5.947-12.014-4.834c-8.062,0.956-13.755,7.145-12.988,16.488
						c-0.05,0.047-0.076,0.073-0.076,0.073s0.704,20.71,16.568,20.71c15.844,0,16.641-21.595,16.643-21.647
						C368.866,216.696,367.748,210.863,360.398,210.724z"/>
					<path style="fill:#3361F2;" d="M371.126,251.252l0.43,18.537l9.946-5.048C381.502,264.741,380.373,255.761,371.126,251.252z"/>
				</g>
			</g>
		</g>
		<g style="opacity:0.1;">
			<path style="fill:#283249;" d="M331.371,251.074l0.709-0.3c-1.02-0.005-2.016,0.023-2.936,0.071
				C329.905,250.893,330.657,250.965,331.371,251.074z"/>
			<path style="fill:#283249;" d="M305.295,247.773c2.042,2.126,13.219,6.173,18.918,7.626v-1.668
				c-4.807-1.39-14.296-3.8-16.172-6.007c-3.574-4.204-9.762-18.021-11.571-21.977l0.049-0.028c0,0-1.602-2.94-1.53-3.613
				c0.071-0.672,1.772-5.143,1.338-5.479c-0.434-0.335-1.63,1.924-2.112,1.829c-0.48-0.096-2.288-5.138-3.058-5.041
				c-0.768,0.097,0.619,4.119,0.536,4.54C291.67,218.071,302.578,244.946,305.295,247.773z"/>
			<path style="fill:#283249;" d="M370.909,412.389h1.851c0,0-1.159-54.147-2.117-89.49c-0.12-4.429-0.309-11.048-0.418-14.56
				l0.303-0.002l-0.494-0.044l-4.922,0.046c0.997,32.188,2.534,104.05,2.534,104.05h-1.851c2.946,1.477,7.095,3.771,7.86,5.335
				l0.008,1.101l-13.979,0.131c0.006,0.031,0.009,0.048,0.009,0.048l19.084-0.179l-0.007-1.101
				C378.003,416.16,373.854,413.865,370.909,412.389z"/>
			<path style="fill:#283249;" d="M376.313,290.787c-0.163-4.971,0.434-23.626,0.433-23.633l4.756-2.413
				c0,0-1.129-8.981-10.376-13.489l-12.661-4.171c-0.544-0.663-1.057-1.376-1.48-2.114c3.934-1.873,7.037-5.923,8.464-11.033
				c0.412-0.854,0.775-1.72,1.085-2.579c0.608-0.445,1.023-1.325,1.014-2.346c-0.002-0.246-0.037-0.48-0.084-0.706
				c0.955-3.765,1.067-6.77,1.068-6.79c0.335-4.817-0.783-10.65-8.133-10.79c0,0-2.631-5.947-12.014-4.834
				c-0.129,0.016-0.252,0.044-0.381,0.062c5.566,0.92,7.28,4.772,7.28,4.772c7.35,0.14,8.468,5.973,8.133,10.79
				c-0.001,0.02-0.113,3.025-1.068,6.79c0.048,0.226,0.082,0.459,0.085,0.706c0.009,1.02-0.406,1.901-1.015,2.346
				c-0.31,0.859-0.673,1.725-1.085,2.579c-1.426,5.11-4.53,9.16-8.464,11.033c0.423,0.737,0.936,1.451,1.479,2.114l12.662,4.171
				c9.248,4.509,10.734,15.902,10.734,15.902l-4.344,2.205c0.001,0.006,2.121,16.53,2.283,21.502
				c0.076,2.312,0.462,7.21,0.863,15.788l0.663,12.113c0,0-1.963,4.869-1.454,5.232c0.508,0.363,1.38-2.244,1.743-2.067
				c0.363,0.177,0.363,3.737-0.363,5.191c-0.727,1.453,0.818,0.714,1.108-0.236c0.432-1.412,0.459-6.313,0.459-6.313
				S376.476,295.759,376.313,290.787z"/>
		</g>
	</g>
	<path style="opacity:0.1;fill:#283249;" d="M347.548,411.768c0.004-0.214,0.008-0.482,0.013-0.801c0-0.037,0.001-0.073,0.002-0.112
		c0.005-0.351,0.013-0.757,0.02-1.216c0.002-0.094,0.003-0.191,0.005-0.288c0.003-0.154,0.006-0.314,0.009-0.48
		c0.001-0.071,0.002-0.14,0.004-0.213c0.004-0.259,0.009-0.526,0.015-0.809c0.001-0.05,0.001-0.104,0.002-0.155
		c0.005-0.266,0.01-0.543,0.016-0.829c0.001-0.063,0.002-0.126,0.004-0.19c0.005-0.271,0.009-0.55,0.015-0.838
		c0.002-0.089,0.004-0.178,0.005-0.268c0.014-0.722,0.029-1.492,0.045-2.307c0.001-0.022,0.002-0.046,0.002-0.069
		c0.053-2.575,0.118-5.587,0.198-8.901c0.001-0.034,0.002-0.07,0.003-0.104c0.013-0.522,0.025-1.052,0.039-1.588
		c0-0.022,0.001-0.045,0.002-0.067c0.027-1.113,0.057-2.256,0.089-3.423c0.001-0.073,0.003-0.146,0.006-0.219
		c0.014-0.525,0.027-1.056,0.042-1.589c0.002-0.055,0.003-0.107,0.005-0.161c0.033-1.188,0.068-2.396,0.105-3.624
		c0.002-0.061,0.004-0.123,0.005-0.184c0.018-0.563,0.034-1.129,0.051-1.697c0.002-0.064,0.005-0.127,0.007-0.191
		c0.037-1.214,0.076-2.441,0.116-3.68c0.005-0.133,0.01-0.266,0.014-0.399c0.016-0.476,0.031-0.951,0.048-1.429
		c0.006-0.161,0.011-0.321,0.017-0.482c0.021-0.603,0.042-1.206,0.063-1.811c0.001-0.017,0.001-0.033,0.002-0.05
		c0.021-0.592,0.042-1.184,0.064-1.775c0.005-0.155,0.011-0.31,0.017-0.465c0.019-0.476,0.036-0.951,0.054-1.428
		c0.006-0.147,0.011-0.294,0.017-0.439c0.024-0.616,0.049-1.232,0.073-1.847c0-0.025,0.001-0.051,0.002-0.077
		c0.022-0.568,0.047-1.138,0.07-1.705c0.008-0.197,0.017-0.395,0.024-0.593c0.018-0.403,0.034-0.806,0.052-1.209
		c0.009-0.208,0.018-0.417,0.027-0.626c0.024-0.578,0.05-1.155,0.077-1.73c0.004-0.093,0.008-0.186,0.012-0.28
		c0.022-0.487,0.046-0.974,0.069-1.458c0.01-0.221,0.021-0.441,0.03-0.661c0.018-0.379,0.037-0.756,0.055-1.133
		c0.012-0.213,0.021-0.428,0.033-0.641c0.022-0.46,0.046-0.919,0.069-1.376c0.014-0.262,0.027-0.522,0.041-0.784
		c0.02-0.381,0.041-0.763,0.061-1.141c0.014-0.237,0.026-0.474,0.04-0.71c0.018-0.333,0.036-0.664,0.055-0.995
		c0.015-0.227,0.026-0.455,0.04-0.68c0.023-0.413,0.048-0.822,0.072-1.23c0.017-0.282,0.033-0.564,0.052-0.844
		c0.021-0.342,0.041-0.684,0.064-1.022c0.015-0.239,0.03-0.475,0.046-0.712c0.019-0.283,0.037-0.565,0.056-0.844
		c0.016-0.242,0.032-0.485,0.049-0.725c0.021-0.319,0.044-0.634,0.066-0.948c0.024-0.354,0.05-0.704,0.075-1.053
		c0.02-0.267,0.039-0.535,0.06-0.799c0.019-0.241,0.037-0.48,0.056-0.719c0.019-0.24,0.038-0.479,0.057-0.715
		c0.019-0.23,0.036-0.463,0.055-0.688c0.022-0.265,0.045-0.523,0.067-0.782c0.619-7.268,1.366-12.449,2.26-13.629
		c-0.139-0.186-0.317-0.257-0.514-0.257c-4.189,0-9.59,85.517-9.59,85.517h3.56h1.555c0,0,0.002-0.175,0.007-0.498
		C347.546,411.853,347.547,411.81,347.548,411.768z"/>
</g>
</svg>
